<svg width="32" height="32" viewBox="0 0 32 32" fill="none" xmlns="http://www.w3.org/2000/svg">
<path d="M22.5459 1.1001H9.45392C7.36792 1.1001 5.66992 2.7981 5.66992 4.8841V25.0721C5.66992 27.1581 7.36792 28.8561 9.45392 28.8561H9.49692V30.0001C9.49692 30.4971 9.89992 30.9001 10.3969 30.9001C10.8939 30.9001 11.2969 30.4971 11.2969 30.0001V28.8571H20.7009V30.0001C20.7009 30.4971 21.1039 30.9001 21.6009 30.9001C22.0979 30.9001 22.5009 30.4971 22.5009 30.0001V28.8571H22.5439C24.6299 28.8571 26.3279 27.1591 26.3279 25.0731V4.8841C26.3299 2.7981 24.6319 1.1001 22.5459 1.1001ZM9.45392 2.9001H22.5459C23.6399 2.9001 24.5289 3.7901 24.5289 4.8841V11.4541H7.47092V4.8841C7.47092 3.7901 8.35992 2.9001 9.45392 2.9001ZM22.5459 27.0571H9.45392C8.35992 27.0571 7.47092 26.1671 7.47092 25.0731V13.2541H24.5299V25.0731C24.5289 26.1671 23.6399 27.0571 22.5459 27.0571Z" fill="#212121"/>
<path d="M10.1422 9.51403C10.6392 9.51403 11.0422 9.11103 11.0422 8.61403V8.25303C11.0422 7.75603 10.6392 7.35303 10.1422 7.35303C9.64519 7.35303 9.24219 7.75603 9.24219 8.25303V8.61403C9.24119 9.11103 9.64519 9.51403 10.1422 9.51403Z" fill="#212121"/>
<path d="M10.1422 15.1943C9.64519 15.1943 9.24219 15.5973 9.24219 16.0943V16.4543C9.24219 16.9513 9.64519 17.3543 10.1422 17.3543C10.6392 17.3543 11.0422 16.9513 11.0422 16.4543V16.0943C11.0422 15.5973 10.6392 15.1943 10.1422 15.1943Z" fill="#212121"/>
</svg>
