<svg width="32" height="32" viewBox="0 0 32 32" fill="none" xmlns="http://www.w3.org/2000/svg">
<g clip-path="url(#clip0_137_900)">
<path d="M19.6205 6.16731C20.8506 5.17362 21.1291 4.11137 21.146 3.39518C21.1874 1.65287 19.8116 0.377865 19.6545 0.238302C19.2655 -0.107699 18.6697 -0.0728238 18.3236 0.316239C17.9776 0.705303 18.0125 1.30112 18.4015 1.64718C18.4104 1.65505 19.282 2.47056 19.2611 3.3505C19.25 3.81931 18.98 4.26093 18.4357 4.70062C17.2055 5.69431 16.927 6.75656 16.9101 7.47275C16.8687 9.21507 18.2445 10.4901 18.4015 10.6297C18.5816 10.7898 18.8063 10.8687 19.0302 10.8687C19.2899 10.8687 19.5485 10.7624 19.7344 10.5534C20.0804 10.1643 20.0474 9.57013 19.6583 9.22413C19.4109 8.99913 18.7735 8.25269 18.7952 7.51038C18.8089 7.04419 19.0788 6.60481 19.6205 6.16731Z" fill="#212121"/>
<path d="M13.639 6.16731C14.8692 5.17362 15.1477 4.11137 15.1646 3.39518C15.206 1.65287 13.8302 0.377865 13.6731 0.238302C13.2842 -0.107699 12.6882 -0.0728238 12.3422 0.316239C11.9962 0.705303 12.031 1.30112 12.4201 1.64718C12.4289 1.65505 13.3005 2.47056 13.2797 3.3505C13.2685 3.81931 12.9985 4.26093 12.4542 4.70062C11.2241 5.69431 10.9456 6.75656 10.9286 7.47275C10.8873 9.21507 12.2631 10.4901 12.4201 10.6297C12.6002 10.7898 12.8249 10.8687 13.0487 10.8687C13.3085 10.8687 13.567 10.7624 13.7529 10.5534C14.0989 10.1643 14.0659 9.57013 13.6768 9.22413C13.4294 8.99913 12.792 8.25269 12.8137 7.51038C12.8274 7.04419 13.0973 6.60481 13.639 6.16731Z" fill="#212121"/>
<path d="M27.1344 15.3841H26.0187V14.6928C26.0187 14.1721 25.5966 13.75 25.0759 13.75H1.01502C0.494391 13.75 0.0722656 14.1721 0.0722656 14.6928V19.6683C0.0722656 24.0647 2.50571 27.9305 6.15909 30.1144H1.01558C0.494954 30.1144 0.0728281 30.5365 0.0728281 31.0572C0.0728281 31.5778 0.494829 31.9999 1.01558 31.9999H25.076C25.5966 31.9999 26.0188 31.5778 26.0188 31.0572C26.0188 30.5365 25.5967 30.1144 25.076 30.1144H19.9319C22.0094 28.8725 23.6924 27.087 24.7576 24.9688H27.1345C29.777 24.9688 31.9269 22.819 31.9269 20.1765C31.9269 17.5339 29.777 15.3841 27.1344 15.3841ZM24.1333 19.6683C24.1332 25.4283 19.1592 30.1144 13.0455 30.1144C6.93172 30.1144 1.95777 25.4283 1.95777 19.6683V15.6355H24.1332V19.6683H24.1333ZM27.1344 23.0834H25.5122C25.8416 21.9985 26.0187 20.8526 26.0187 19.6683V17.2695H27.1344C28.7373 17.2695 30.0414 18.5736 30.0414 20.1765C30.0414 21.7793 28.7373 23.0834 27.1344 23.0834Z" fill="#212121"/>
<path d="M7.6566 6.16731C8.88673 5.17362 9.16523 4.11137 9.18217 3.39518C9.22355 1.65287 7.84773 0.377865 7.69067 0.238302C7.30167 -0.107699 6.70579 -0.0728238 6.35973 0.316239C6.01373 0.70524 6.0486 1.30112 6.43766 1.64718C6.44648 1.65505 7.3181 2.47056 7.29723 3.3505C7.2861 3.81931 7.0161 4.26093 6.47179 4.70062C5.24166 5.69431 4.96316 6.75656 4.94622 7.47275C4.90491 9.21501 6.28073 10.49 6.43773 10.6296C6.61735 10.7894 6.84104 10.8679 7.06392 10.8679C7.32373 10.8679 7.58242 10.7611 7.76873 10.5517C8.11473 10.1626 8.07985 9.56682 7.69079 9.22076C7.68198 9.21288 6.81035 8.39738 6.83123 7.51744C6.84223 7.04863 7.11223 6.60694 7.6566 6.16731Z" fill="#212121"/>
</g>
<defs>
<clipPath id="clip0_137_900">
<rect width="32" height="32" fill="white"/>
</clipPath>
</defs>
</svg>
