<svg width="32" height="32" viewBox="0 0 32 32" fill="none" xmlns="http://www.w3.org/2000/svg">
<path d="M25.3337 30.3333H6.66699C5.34134 30.3319 4.07039 29.8047 3.13302 28.8673C2.19564 27.9299 1.6684 26.659 1.66699 25.3333V12C1.6684 10.6744 2.19564 9.4034 3.13302 8.46603C4.07039 7.52865 5.34134 7.00141 6.66699 7H25.3337C26.6592 7.00176 27.9299 7.52911 28.8672 8.46641C29.8045 9.40371 30.3319 10.6745 30.3337 12V25.3333C30.3319 26.6589 29.8045 27.9296 28.8672 28.8669C27.9299 29.8042 26.6592 30.3316 25.3337 30.3333ZM6.66699 9C5.87156 9.00071 5.10891 9.317 4.54645 9.87946C3.984 10.4419 3.6677 11.2046 3.66699 12V25.3333C3.6677 26.1288 3.984 26.8914 4.54645 27.4539C5.10891 28.0163 5.87156 28.3326 6.66699 28.3333H25.3337C26.129 28.3323 26.8914 28.0159 27.4538 27.4535C28.0162 26.8911 28.3326 26.1287 28.3337 25.3333V12C28.3326 11.2047 28.0162 10.4422 27.4538 9.87985C26.8914 9.31747 26.129 9.00106 25.3337 9H6.66699Z" fill="#212121"/>
<path d="M14.5759 23.4958C13.9424 23.4951 13.3351 23.2431 12.8871 22.7952C12.4392 22.3473 12.1872 21.7399 12.1865 21.1065V16.2265C12.1868 15.8194 12.2912 15.4193 12.4897 15.0639C12.6881 14.7085 12.9741 14.4098 13.3205 14.1961C13.6669 13.9823 14.0622 13.8607 14.4688 13.8427C14.8754 13.8247 15.2799 13.9109 15.6439 14.0931L19.8252 16.1838C20.1994 16.3709 20.5179 16.6529 20.7489 17.0017C20.9798 17.3505 21.1152 17.7538 21.1414 18.1714C21.1676 18.5889 21.0837 19.006 20.8981 19.3809C20.7125 19.7558 20.4317 20.0754 20.0839 20.3078L15.8999 23.0931C15.5083 23.3558 15.0474 23.4959 14.5759 23.4958ZM14.5759 15.8358C14.5037 15.837 14.4332 15.8578 14.3719 15.8958C14.315 15.93 14.2681 15.9786 14.2358 16.0366C14.2035 16.0946 14.187 16.1601 14.1879 16.2265V21.1065C14.1882 21.1766 14.2076 21.2454 14.2438 21.3054C14.2801 21.3655 14.3319 21.4147 14.3937 21.4477C14.4556 21.4808 14.5253 21.4965 14.5954 21.4932C14.6654 21.49 14.7333 21.4678 14.7919 21.4291L18.9745 18.6411C19.0321 18.6046 19.0786 18.5529 19.1089 18.4918C19.1393 18.4307 19.1523 18.3625 19.1465 18.2945C19.1436 18.2259 19.1221 18.1594 19.0843 18.1021C19.0465 18.0448 18.9938 17.9988 18.9319 17.9691L14.7492 15.8798C14.6953 15.8513 14.6354 15.8363 14.5745 15.8358H14.5759Z" fill="#212121"/>
<path d="M16.0008 8.9998C15.8694 9.00012 15.7393 8.97436 15.618 8.924C15.4967 8.87365 15.3866 8.7997 15.2941 8.70646L9.96077 3.37313C9.78413 3.18356 9.68797 2.93283 9.69254 2.67377C9.69711 2.4147 9.80206 2.16752 9.98528 1.9843C10.1685 1.80108 10.4157 1.69613 10.6747 1.69156C10.9338 1.68699 11.1845 1.78316 11.3741 1.9598L16.0008 6.58513L20.6274 1.9598C20.817 1.78316 21.0677 1.68699 21.3268 1.69156C21.5859 1.69613 21.833 1.80108 22.0163 1.9843C22.1995 2.16752 22.3044 2.4147 22.309 2.67377C22.3136 2.93283 22.2174 3.18356 22.0408 3.37313L16.7074 8.70646C16.6149 8.7997 16.5048 8.87365 16.3835 8.924C16.2622 8.97436 16.1321 9.00012 16.0008 8.9998Z" fill="#212121"/>
</svg>
