<svg width="32" height="32" viewBox="0 0 32 32" fill="none" xmlns="http://www.w3.org/2000/svg">
<path d="M30.375 2.8125H1.625C1.075 2.8125 0.625 3.2625 0.625 3.8125V8.0625C0.625 8.6125 1.075 9.0625 1.625 9.0625H3.75V28.1875C3.75 28.7375 4.2 29.1875 4.75 29.1875C5.3 29.1875 5.75 28.7375 5.75 28.1875V18.5063H16.0563V23.7562C16.0563 24.3062 16.5063 24.7563 17.0563 24.7563H26.25V28.1875C26.25 28.7375 26.7 29.1875 27.25 29.1875C27.8 29.1875 28.25 28.7375 28.25 28.1875V9.0625H30.375C30.925 9.0625 31.375 8.6125 31.375 8.0625V3.8125C31.375 3.2625 30.925 2.8125 30.375 2.8125ZM5.75 16.5063V9.0625H16.0563V16.5063H5.75ZM18.0562 22.7563V14.2938H26.25V22.7563H18.0562ZM26.25 12.3H18.0562V9.06875H26.25V12.3ZM29.375 7.0625H2.625V4.8125H29.375V7.0625Z" fill="#212121"/>
<path d="M20.4375 16.5063C19.8875 16.5063 19.4375 16.9563 19.4375 17.5063V19.4626C19.4375 20.0126 19.8875 20.4626 20.4375 20.4626C20.9875 20.4626 21.4375 20.0126 21.4375 19.4626V17.5063C21.4375 16.9563 20.9875 16.5063 20.4375 16.5063Z" fill="#212121"/>
</svg>
