<svg width="32" height="32" viewBox="0 0 32 32" fill="none" xmlns="http://www.w3.org/2000/svg">
<mask id="mask0_137_707" style="mask-type:luminance" maskUnits="userSpaceOnUse" x="0" y="0" width="32" height="32">
<path d="M0 1.90735e-06H32V32H0V1.90735e-06Z" fill="white"/>
</mask>
<g mask="url(#mask0_137_707)">
<path d="M2.82031 31.0625V23.5313H6.58594" stroke="#212121" stroke-width="2" stroke-miterlimit="10" stroke-linecap="round" stroke-linejoin="round"/>
</g>
<path d="M17.8828 23.5312H21.6484" stroke="#212121" stroke-width="2" stroke-miterlimit="10" stroke-linecap="round" stroke-linejoin="round"/>
<path d="M17.8828 27.2969H21.6484" stroke="#212121" stroke-width="2" stroke-miterlimit="10" stroke-linecap="round" stroke-linejoin="round"/>
<mask id="mask1_137_707" style="mask-type:luminance" maskUnits="userSpaceOnUse" x="0" y="0" width="32" height="32">
<path d="M0 1.90735e-06H32V32H0V1.90735e-06Z" fill="white"/>
</mask>
<g mask="url(#mask1_137_707)">
<path d="M17.8828 31.0625H21.6484" stroke="#212121" stroke-width="2" stroke-miterlimit="10" stroke-linecap="round" stroke-linejoin="round"/>
<path d="M25.4141 23.5312H29.1797" stroke="#212121" stroke-width="2" stroke-miterlimit="10" stroke-linecap="round" stroke-linejoin="round"/>
<path d="M25.4141 27.2969H29.1797" stroke="#212121" stroke-width="2" stroke-miterlimit="10" stroke-linecap="round" stroke-linejoin="round"/>
<path d="M25.4141 31.0625H29.1797" stroke="#212121" stroke-width="2" stroke-miterlimit="10" stroke-linecap="round" stroke-linejoin="round"/>
<path d="M2.82031 27.2969H6.58594" stroke="#212121" stroke-width="2" stroke-miterlimit="10" stroke-linecap="round" stroke-linejoin="round"/>
<path d="M12.2344 27.2969H10.3516V23.5313H12.2344C13.2742 23.5313 14.1172 24.3742 14.1172 25.4141C14.1172 26.4539 13.2742 27.2969 12.2344 27.2969Z" stroke="#212121" stroke-width="2" stroke-miterlimit="10" stroke-linecap="round" stroke-linejoin="round"/>
<path d="M10.3516 31.0625V23.5313" stroke="#212121" stroke-width="2" stroke-miterlimit="10" stroke-linecap="round" stroke-linejoin="round"/>
<path d="M11.7969 27.2969L14.1172 31.0625" stroke="#212121" stroke-width="2" stroke-miterlimit="10" stroke-linecap="round" stroke-linejoin="round"/>
<path d="M17.8828 31.0625V23.5313" stroke="#212121" stroke-width="2" stroke-miterlimit="10" stroke-linecap="round" stroke-linejoin="round"/>
<path d="M25.4141 31.0625V23.5313" stroke="#212121" stroke-width="2" stroke-miterlimit="10" stroke-linecap="round" stroke-linejoin="round"/>
<path d="M17.8828 17.8828C17.8828 18.9227 17.0399 19.7656 16 19.7656C14.9601 19.7656 14.1172 18.9227 14.1172 17.8828C14.1172 16.8429 14.9601 16 16 16C17.0399 16 17.8828 16.8429 17.8828 17.8828Z" stroke="#212121" stroke-width="2" stroke-miterlimit="10" stroke-linecap="round" stroke-linejoin="round"/>
<path d="M12.0059 13.8887C14.2117 11.6828 17.7881 11.6828 19.994 13.8887" stroke="#212121" stroke-width="2" stroke-miterlimit="10" stroke-linecap="round" stroke-linejoin="round"/>
<path d="M9.34277 11.2261C13.0192 7.54964 18.9798 7.54964 22.6563 11.2261" stroke="#212121" stroke-width="2" stroke-miterlimit="10" stroke-linecap="round" stroke-linejoin="round"/>
<path d="M6.68066 8.56348C11.8277 3.41648 20.1725 3.41648 25.3195 8.56348" stroke="#212121" stroke-width="2" stroke-miterlimit="10" stroke-linecap="round" stroke-linejoin="round"/>
<path d="M4.01758 5.90088C10.6351 -0.716683 21.3643 -0.716683 27.9819 5.90088" stroke="#212121" stroke-width="2" stroke-miterlimit="10" stroke-linecap="round" stroke-linejoin="round"/>
</g>
</svg>
