<svg width="32" height="32" viewBox="0 0 32 32" fill="none" xmlns="http://www.w3.org/2000/svg">
<path d="M22 10C22 8.89543 22.8954 8 24 8C25.1046 8 26 8.89543 26 10C26 11.1046 25.1046 12 24 12C22.8954 12 22 11.1046 22 10Z" fill="#212121"/>
<path fill-rule="evenodd" clip-rule="evenodd" d="M7 4C4.23858 4 2 6.23858 2 9V15C2 16.6569 3.34315 18 5 18C5 19.6569 6.34315 21 8 21H24C25.6569 21 27 19.6569 27 18C28.6569 18 30 16.6569 30 15V9C30 6.23858 27.7614 4 25 4H7ZM25 18H7C7 18.5523 7.44772 19 8 19H24C24.5523 19 25 18.5523 25 18ZM27 16C27.5523 16 28 15.5523 28 15V9C28 7.34315 26.6569 6 25 6H7C5.34315 6 4 7.34315 4 9V15C4 15.5523 4.44772 16 5 16H27Z" fill="#212121"/>
<path d="M17 23C17 22.4477 16.5523 22 16 22C15.4477 22 15 22.4477 15 23V27C15 27.5523 15.4477 28 16 28C16.5523 28 17 27.5523 17 27V23Z" fill="#212121"/>
<path d="M21.2929 27.7071L20.4645 26.8787C19.5268 25.941 19 24.6692 19 23.3431V23C19 22.4477 19.4477 22 20 22C20.5523 22 21 22.4477 21 23V23.3431C21 24.1388 21.3161 24.9019 21.8787 25.4645L22.7071 26.2929C23.0976 26.6834 23.0976 27.3166 22.7071 27.7071C22.3166 28.0976 21.6834 28.0976 21.2929 27.7071Z" fill="#212121"/>
<path d="M13 23C13 22.4477 12.5523 22 12 22C11.4477 22 11 22.4477 11 23V23.3431C11 24.1388 10.6839 24.9019 10.1213 25.4645L9.29289 26.2929C8.90237 26.6834 8.90237 27.3166 9.29289 27.7071C9.68342 28.0976 10.3166 28.0976 10.7071 27.7071L11.5355 26.8787C12.4732 25.941 13 24.6692 13 23.3431V23Z" fill="#212121"/>
</svg>
