<svg width="32" height="32" viewBox="0 0 32 32" fill="none" xmlns="http://www.w3.org/2000/svg">
<g clip-path="url(#clip0_137_838)">
<mask id="mask0_137_838" style="mask-type:luminance" maskUnits="userSpaceOnUse" x="0" y="0" width="32" height="32">
<path d="M0 1.90735e-06H32V32H0V1.90735e-06Z" fill="white"/>
</mask>
<g mask="url(#mask0_137_838)">
<path d="M9.75 24.8125H4.75V3.4375C4.75 2.05681 5.86931 0.937501 7.25 0.937501C8.63069 0.937501 9.75 2.05681 9.75 3.4375V24.8125Z" stroke="#212121" stroke-width="2" stroke-miterlimit="10" stroke-linecap="round" stroke-linejoin="round"/>
<path d="M27.25 31.0625H9.75V3.4375C9.75 2.05681 8.63069 0.937502 7.25 0.937502H24.75C26.1307 0.937502 27.25 2.05681 27.25 3.4375V31.0625Z" stroke="#212121" stroke-width="2" stroke-miterlimit="10" stroke-linecap="round" stroke-linejoin="round"/>
<path d="M0.9375 2.1875V5.9375" stroke="#212121" stroke-width="2" stroke-miterlimit="10" stroke-linecap="round" stroke-linejoin="round"/>
<path d="M31.0625 2.1875V5.9375" stroke="#212121" stroke-width="2" stroke-miterlimit="10" stroke-linecap="round" stroke-linejoin="round"/>
<path d="M27.25 5.9375H31.0625" stroke="#212121" stroke-width="2" stroke-miterlimit="10" stroke-linecap="round" stroke-linejoin="round"/>
<path d="M0.9375 5.9375H9.75" stroke="#212121" stroke-width="2" stroke-miterlimit="10" stroke-linecap="round" stroke-linejoin="round"/>
<path d="M27.25 27.3125H9.75V31.0625H27.25V27.3125Z" stroke="#212121" stroke-width="2" stroke-miterlimit="10" stroke-linecap="round" stroke-linejoin="round"/>
<path d="M27.25 23.5625H9.75V27.3125H27.25V23.5625Z" stroke="#212121" stroke-width="2" stroke-miterlimit="10" stroke-linecap="round" stroke-linejoin="round"/>
</g>
</g>
<defs>
<clipPath id="clip0_137_838">
<rect width="32" height="32" fill="white"/>
</clipPath>
</defs>
</svg>
