<svg width="32" height="32" viewBox="0 0 32 32" fill="none" xmlns="http://www.w3.org/2000/svg">
<g clip-path="url(#clip0_137_859)">
<path d="M31.7427 7.82193C31.6016 7.67075 31.4153 7.57269 31.2142 7.5385C30.9925 5.76838 30.447 4.26945 29.5865 3.07508C28.1756 1.11684 26.0075 0.0834654 23.1424 0.0035907C21.2368 -0.0498466 19.7397 0.493401 18.6894 1.61733C17.0722 3.34777 16.9788 6.01357 17.063 7.60662C16.9502 7.65719 16.8471 7.72962 16.761 7.82187C16.5837 8.01181 16.4931 8.26681 16.511 8.52606L17.0731 16.6846C17.107 17.1761 17.5156 17.5576 18.0084 17.5576H18.1265C18.2232 18.9248 18.2812 20.2814 18.3018 21.6797L18.3767 26.7644C18.3769 26.7807 18.3776 26.7969 18.3787 26.8131C18.5733 29.7216 21.0306 31.9999 23.973 31.9999C25.2381 31.9999 26.4795 31.5696 27.4686 30.7882C28.46 30.005 29.1603 28.899 29.4408 27.674C29.6801 26.6281 29.7868 25.0654 29.9218 23.087C30.036 21.4124 30.1638 19.541 30.3997 17.5575H30.4952C30.988 17.5575 31.3966 17.176 31.4305 16.6845L31.9926 8.526C32.0105 8.26687 31.92 8.01187 31.7427 7.82193ZM20.0592 2.89758C20.736 2.17346 21.7277 1.84027 23.0902 1.8779C26.7029 1.97858 28.7944 3.87776 29.3212 7.52419H18.9367C18.8663 6.21257 18.9271 4.10901 20.0592 2.89758ZM28.0512 22.9594C27.9269 24.7806 27.8196 26.3535 27.6131 27.2557C27.2264 28.945 25.7296 30.1249 23.973 30.1249C22.0218 30.1249 20.3915 28.6273 20.2512 26.711L20.1766 21.6521C20.1562 20.2635 20.0997 18.915 20.0061 17.5576H28.5121C28.2874 19.5025 28.1628 21.3236 28.0512 22.9594ZM29.6201 15.6827H18.8836L18.7317 13.4784H29.772L29.6201 15.6827ZM29.9011 11.6034H18.6025L18.4506 9.39912H30.053L29.9011 11.6034Z" fill="#212121"/>
<path d="M15.2387 7.82186C15.1525 7.72955 15.0495 7.65705 14.9367 7.60649C15.021 6.01343 14.9275 3.34763 13.3104 1.6172C12.2601 0.493327 10.7625 -0.0488588 8.85732 0.00345347C5.99221 0.0833282 3.82415 1.1167 2.41328 3.07494C1.55272 4.26937 1.00729 5.76831 0.785602 7.53836C0.58454 7.57255 0.398228 7.67061 0.257104 7.8218C0.0797922 8.01173 -0.0107699 8.26673 0.00710501 8.52598L0.569228 16.6845C0.603103 17.176 1.01173 17.5575 1.50447 17.5575H1.59997C1.83585 19.541 1.96366 21.4124 2.07791 23.087C2.21291 25.0654 2.31953 26.628 2.55891 27.674C2.83928 28.899 3.53972 30.005 4.53109 30.7881C5.52015 31.5696 6.76158 31.9999 8.0267 31.9999C10.9691 31.9999 13.4264 29.7216 13.621 26.8131C13.6221 26.7968 13.6227 26.7806 13.623 26.7643L13.6979 21.6797C13.7186 20.2814 13.7765 18.9248 13.8732 17.5576H13.9913C14.484 17.5576 14.8927 17.1761 14.9265 16.6846L15.4887 8.52605C15.5065 8.26686 15.416 8.0118 15.2387 7.82186ZM8.90957 1.87776C10.2724 1.83995 11.2637 2.17332 11.9405 2.89744C13.0727 4.10894 13.1335 6.21249 13.0631 7.52405H2.67853C3.20534 3.87763 5.29677 1.97845 8.90957 1.87776ZM11.8231 21.6519L11.7485 26.7108C11.6082 28.6272 9.97788 30.1248 8.02664 30.1248C6.27014 30.1248 4.77327 28.9449 4.38659 27.2555C4.18009 26.3533 4.07278 24.7804 3.94846 22.9592C3.83684 21.3234 3.71222 19.5023 3.48753 17.5574H11.9936C11.9001 18.9148 11.8436 20.2634 11.8231 21.6519ZM13.1162 15.6825H2.3796L2.22772 13.4783H13.2681L13.1162 15.6825ZM13.3972 11.6033H2.09853L1.94666 9.39898H13.5491L13.3972 11.6033Z" fill="#212121"/>
</g>
<defs>
<clipPath id="clip0_137_859">
<rect width="32" height="32" fill="white"/>
</clipPath>
</defs>
</svg>
