<svg width="32" height="32" viewBox="0 0 32 32" fill="none" xmlns="http://www.w3.org/2000/svg">
<g clip-path="url(#clip0_137_774)">
<path d="M23.0821 11.5954L19.5296 6.27272C19.1306 5.67484 18.3813 5.41616 17.6986 5.64072C16.5136 6.0306 6.04895 9.49886 3.55669 11.1618C-0.112637 13.6104 -1.1052 18.588 1.34337 22.2568C3.369 25.292 7.11833 26.4595 10.433 25.3987L17.2442 31.5843C17.5584 31.8696 17.9733 32.0184 18.3968 31.9982C18.6891 31.9843 18.9691 31.8904 19.208 31.731C19.3158 31.659 19.4154 31.5737 19.504 31.4761L21.6554 29.107C22.2496 28.4531 22.2005 27.4409 21.5466 26.8467L15.7279 21.5625C18.8463 18.4307 22.4373 14.1582 22.9791 13.5096C23.4341 12.965 23.4758 12.1858 23.0821 11.5954ZM20.4709 28.0312L18.3194 30.4003L12.0293 24.6877C12.1637 24.6087 12.3072 24.558 12.4383 24.4706C13.0341 24.0727 13.7744 23.4413 14.5807 22.6823L20.4709 28.0312ZM11.5504 23.1395C8.61065 25.1016 4.63626 24.3091 2.67412 21.3688C0.711991 18.429 1.50449 14.4546 4.44482 12.4925C6.82776 10.9021 18.1985 7.16023 18.1985 7.16023L21.7516 12.4834C21.7515 12.4839 14.4901 21.1773 11.5504 23.1395Z" fill="#212121"/>
<path d="M11.3243 15.5959C10.0997 13.7612 7.61121 13.2647 5.77652 14.4892C3.94182 15.7137 3.44532 18.2022 4.66983 20.0369C5.89433 21.8716 8.3829 22.3681 10.2176 21.1436C12.0523 19.9191 12.5488 17.4305 11.3243 15.5959ZM9.32959 19.8124C8.22721 20.5484 6.73702 20.2508 6.00102 19.1484C5.26502 18.0461 5.56264 16.5559 6.66502 15.8199C7.7674 15.0839 9.25759 15.3815 9.9936 16.4839C10.7291 17.5863 10.432 19.0764 9.32959 19.8124Z" fill="#212121"/>
<path d="M27.1015 0C26.9394 0.358376 26.7058 0.712003 26.3581 0.944004C25.8941 1.25388 25.3383 1.25388 24.6941 1.25438C23.9042 1.25438 23.0098 1.25544 22.1426 1.83357C20.9597 2.62289 20.557 4.02983 20.4199 4.79996H22.053C22.1794 4.27408 22.4492 3.55251 23.0306 3.16476C23.4946 2.85489 24.0509 2.85489 24.6946 2.85439C25.4845 2.85439 26.3789 2.85332 27.2461 2.2752C28.1271 1.68694 28.5709 0.757878 28.8002 0H27.1015Z" fill="#212121"/>
<path d="M28.7011 3.2002C28.539 3.55857 28.3054 3.9122 27.9577 4.1442C27.4937 4.45408 26.9379 4.45408 26.2937 4.45458C25.5038 4.45458 24.6094 4.45564 23.7422 5.03377C22.5593 5.82308 22.1566 7.23002 22.0195 8.00015H23.6526C23.779 7.47427 24.0494 6.75271 24.6307 6.36496C25.0947 6.05508 25.651 6.05508 26.2947 6.05458C27.0846 6.05458 27.979 6.05352 28.8462 5.47539C29.7267 4.88714 30.1704 3.95807 30.3998 3.2002H28.7011Z" fill="#212121"/>
<path d="M30.3018 6.3999C30.1396 6.75828 29.906 7.1119 29.5583 7.34391C29.0943 7.65378 28.5385 7.65378 27.8943 7.65428C27.1044 7.65428 26.21 7.65535 25.3428 8.23347C24.1599 9.02279 23.7572 10.4297 23.6201 11.1999H25.2532C25.3796 10.674 25.65 9.95242 26.2313 9.56466C26.6953 9.25479 27.2516 9.25479 27.8953 9.25429C28.6852 9.25429 29.5796 9.25323 30.4468 8.6751C31.3273 8.08685 31.771 7.15778 32.0004 6.3999H30.3018Z" fill="#212121"/>
</g>
<defs>
<clipPath id="clip0_137_774">
<rect width="32" height="32" fill="white"/>
</clipPath>
</defs>
</svg>
