<svg width="32" height="32" viewBox="0 0 32 32" fill="none" xmlns="http://www.w3.org/2000/svg">
<g clip-path="url(#clip0_137_828)">
<path d="M17.9196 23.283C17.8836 22.7646 17.4342 22.3735 16.9158 22.4095C16.3974 22.4455 16.0063 22.8949 16.0423 23.4134L16.1053 24.3199C16.1412 24.8377 16.5898 25.2292 17.1091 25.1934C17.6274 25.1574 18.0186 24.708 17.9825 24.1895L17.9196 23.283Z" fill="#212121"/>
<path d="M22.3791 20.9666C22.1694 20.4912 21.6138 20.2758 21.1385 20.4856C20.663 20.6953 20.4477 21.2508 20.6574 21.7262L21.0024 22.5083C21.2121 22.9836 21.7675 23.1991 22.2431 22.9893C22.7185 22.7796 22.9339 22.2241 22.7241 21.7487L22.3791 20.9666Z" fill="#212121"/>
<path d="M26.736 18.6953C26.3776 18.3194 25.7819 18.3051 25.4058 18.6638C25.0297 19.0224 25.0156 19.618 25.3742 19.994L26.0014 20.6516C26.3599 21.0276 26.9555 21.0419 27.3316 20.6832C27.7077 20.3246 27.7218 19.729 27.3632 19.3529L26.736 18.6953Z" fill="#212121"/>
<path d="M16.7954 28.1447C16.2764 28.17 15.8762 28.6114 15.9015 29.1304L15.9474 30.0685C15.9727 30.5876 16.4141 30.9878 16.9331 30.9624C17.4521 30.937 17.8523 30.4957 17.8269 29.9767L17.7811 29.0385C17.7557 28.5195 17.3141 28.1197 16.7954 28.1447Z" fill="#212121"/>
<path d="M22.2622 26.8237C22.1146 26.3254 21.5909 26.0412 21.0927 26.189C20.5944 26.3366 20.3103 26.8603 20.458 27.3585L20.7092 28.206C20.8571 28.7048 21.3812 28.9883 21.8788 28.8407C22.377 28.693 22.6612 28.1694 22.5134 27.6712L22.2622 26.8237Z" fill="#212121"/>
<path d="M26.6842 24.6113C26.4158 24.1663 25.8375 24.0232 25.3925 24.2917C24.9476 24.5601 24.8045 25.1384 25.0729 25.5833L25.5295 26.3403C25.7978 26.7852 26.3761 26.9284 26.8211 26.6599C27.2661 26.3915 27.4092 25.8132 27.1408 25.3682L26.6842 24.6113Z" fill="#212121"/>
<path d="M31.7264 23.1071L31.0644 22.4408C30.6982 22.0722 30.1025 22.0702 29.7338 22.4365C29.3651 22.8028 29.3633 23.3985 29.7295 23.7672L30.3915 24.4335C30.7574 24.8017 31.3532 24.8044 31.7222 24.4377C32.0908 24.0715 32.0926 23.4757 31.7264 23.1071Z" fill="#212121"/>
<path d="M26.9977 12.5034L26.7129 11.8636C26.242 10.8059 25.1246 10.2341 24.0315 10.4053L23.8558 10.0105C22.8323 7.71179 20.4203 6.44596 18.0109 6.83135L17.3928 5.42696C15.9428 2.13291 12.6802 0.00439453 9.08099 0.00439453C4.07368 0.00439453 0 4.07814 0 9.08539V31.0543C0 31.5739 0.421275 31.9952 0.940905 31.9952H4.70453C5.22416 31.9952 5.64543 31.5739 5.64543 31.0543V9.08539C5.64543 7.19103 7.18664 5.64983 9.08099 5.64983C10.4427 5.64983 11.6771 6.45499 12.2256 7.70131L12.8895 9.20902C11.1641 10.7735 10.6029 13.2897 11.5762 15.477L11.7521 15.8716C10.9095 16.555 10.5636 17.7603 11.0437 18.8387L11.3286 19.4786C11.9512 20.8773 13.5906 21.5164 15.001 20.8885L25.5878 16.1758C26.989 15.5522 27.6215 13.9047 26.9977 12.5034ZM22.1367 10.7759L22.2773 11.0915L13.436 15.0272L13.2954 14.7115C12.4934 12.9092 13.2832 10.7931 15.1138 9.97686L17.3998 8.95855C19.2568 8.13714 21.3416 8.9901 22.1367 10.7759ZM9.08099 3.76802C6.149 3.76802 3.76362 6.1534 3.76362 9.08539V30.1134H1.88181V9.08539C1.88181 5.11577 5.11137 1.88621 9.08099 1.88621C11.9344 1.88621 14.521 3.57362 15.6705 6.18508L16.2165 7.42557L14.4975 8.19134L13.9479 6.94319C13.099 5.01434 11.1886 3.76802 9.08099 3.76802ZM24.8225 14.4567L14.2356 19.1694C13.7813 19.3716 13.25 19.1678 13.0477 18.7134L12.7629 18.0735C12.6218 17.7567 12.7641 17.3861 13.081 17.245C13.8915 16.8842 23.9258 12.4174 24.1653 12.3108C24.4814 12.1702 24.8531 12.3128 24.9938 12.6289L25.2787 13.2687C25.4803 13.722 25.2757 14.255 24.8225 14.4567Z" fill="#212121"/>
</g>
<defs>
<clipPath id="clip0_137_828">
<rect width="32" height="32" fill="white"/>
</clipPath>
</defs>
</svg>
