<svg width="32" height="32" viewBox="0 0 32 32" fill="none" xmlns="http://www.w3.org/2000/svg">
<path d="M26.5442 0H5.45666C3.55548 0 2.00879 1.54675 2.00879 3.44794V24.5354C2.00879 26.1116 3.07235 27.4432 4.51916 27.8527V31.0625C4.51916 31.5802 4.93891 32 5.45666 32H9.47329C9.99104 32 10.4108 31.5802 10.4108 31.0625V27.9833H21.59V31.0625C21.59 31.5802 22.0097 32 22.5275 32H26.5442C27.0619 32 27.4817 31.5802 27.4817 31.0625V27.8528C28.9285 27.4433 29.992 26.1116 29.992 24.5354V3.44794C29.992 1.54675 28.4454 0 26.5442 0ZM7.90035 5.89169H24.1003V22.0917H7.90035V5.89169ZM6.02535 17.0709H3.88379V10.9125H6.02541V17.0709H6.02535ZM8.53573 30.125H6.39416V27.9833H8.53579L8.53573 30.125ZM25.6067 30.125H23.4649V27.9833H25.6067V30.125ZM28.117 24.5354C28.117 25.4027 27.4115 26.1083 26.5442 26.1083H22.5274H9.47323H5.45666C4.58935 26.1083 3.88379 25.4027 3.88379 24.5354V18.9458H6.02541V23.0291C6.02541 23.5469 6.44516 23.9666 6.96291 23.9666H25.0379C25.5556 23.9666 25.9754 23.5469 25.9754 23.0291V4.95412C25.9754 4.43637 25.5556 4.01662 25.0379 4.01662H6.96285C6.4451 4.01662 6.02535 4.43637 6.02535 4.95412V9.0375H3.88379V3.44794C3.88379 2.58063 4.58935 1.875 5.45666 1.875H26.5442C27.4115 1.875 28.117 2.58063 28.117 3.44794V24.5354Z" fill="#212121"/>
<path d="M20.8222 10.4956L21.6337 9.68408C21.9998 9.31802 21.9998 8.72439 21.6337 8.35826C21.2676 7.9922 20.674 7.9922 20.3079 8.35826L19.4963 9.16983C18.5137 8.45533 17.3054 8.0332 16.0003 8.0332C14.6952 8.0332 13.487 8.45533 12.5044 9.16977L11.6929 8.35826C11.3268 7.99226 10.7332 7.9922 10.3671 8.3582C10.001 8.72433 10.0009 9.31789 10.367 9.68408L11.1785 10.4956C10.4641 11.4783 10.042 12.6865 10.042 13.9916C10.042 15.2967 10.4641 16.5049 11.1785 17.4875L10.367 18.2991C10.0009 18.6653 10.001 19.2588 10.3671 19.625C10.5502 19.8081 10.7901 19.8996 11.0299 19.8996C11.2698 19.8996 11.5099 19.808 11.6929 19.625L12.5043 18.8135C13.4869 19.5279 14.6951 19.95 16.0002 19.95C17.3054 19.95 18.5136 19.5279 19.4962 18.8135L20.3079 19.6249C20.491 19.808 20.7309 19.8995 20.9708 19.8995C21.2107 19.8995 21.4507 19.808 21.6337 19.6249C21.9998 19.2588 21.9998 18.6652 21.6337 18.2991L20.8221 17.4876C21.5366 16.5049 21.9587 15.2966 21.9587 13.9915C21.9587 12.6864 21.5366 11.4782 20.8222 10.4956ZM11.9171 13.9915C11.9171 11.74 13.7489 9.9082 16.0004 9.9082C18.2519 9.9082 20.0837 11.74 20.0837 13.9915C20.0837 16.2431 18.2519 18.0749 16.0004 18.0749C13.7489 18.0749 11.9171 16.2431 11.9171 13.9915Z" fill="#212121"/>
</svg>
