<svg width="66" height="65" viewBox="0 0 66 65" fill="none" xmlns="http://www.w3.org/2000/svg">
<path d="M27.7948 33.3906H5.81543C5.57974 33.3906 5.3537 33.297 5.18704 33.1303C5.02039 32.9637 4.92676 32.7376 4.92676 32.502V3.9375C4.92676 3.70181 5.02039 3.47577 5.18704 3.30911C5.3537 3.14246 5.57974 3.04883 5.81543 3.04883H21.4307C21.6664 3.04883 21.8924 3.14246 22.0591 3.30911C22.2257 3.47577 22.3193 3.70181 22.3193 3.9375V9.41426H27.7948C28.0305 9.41426 28.2566 9.50789 28.4232 9.67454C28.5899 9.8412 28.6835 10.0672 28.6835 10.3029V32.502C28.6835 32.7376 28.5899 32.9637 28.4232 33.1303C28.2566 33.297 28.0305 33.3906 27.7948 33.3906ZM6.7041 31.6133H26.9062V11.1916H21.4319C21.1962 11.1916 20.9702 11.098 20.8035 10.9313C20.6369 10.7647 20.5433 10.5386 20.5433 10.3029V4.82617H6.70537L6.7041 31.6133Z" fill="#EAD798"/>
<path d="M27.7479 11.2411C27.6316 11.2423 27.5162 11.2205 27.4083 11.177C27.3005 11.1334 27.2023 11.0689 27.1195 10.9872L20.7249 4.58745C20.5582 4.42078 20.4646 4.19473 20.4646 3.95903C20.4646 3.72333 20.5582 3.49728 20.7249 3.33061C20.8916 3.16394 21.1176 3.07031 21.3533 3.07031C21.589 3.07031 21.8151 3.16394 21.9817 3.33061L28.3764 9.72397C28.5033 9.84828 28.59 10.0078 28.6254 10.1819C28.6608 10.3559 28.6432 10.5366 28.5748 10.7006C28.5065 10.8646 28.3906 11.0044 28.2421 11.1018C28.0936 11.1993 27.9192 11.25 27.7416 11.2474L27.7479 11.2411Z" fill="#EAD798"/>
<path d="M23.8238 16.7788H9.78784C9.55215 16.7788 9.32611 16.6852 9.15946 16.5185C8.9928 16.3519 8.89917 16.1258 8.89917 15.8901C8.89917 15.6544 8.9928 15.4284 9.15946 15.2618C9.32611 15.0951 9.55215 15.0015 9.78784 15.0015H23.8238C24.0595 15.0015 24.2855 15.0951 24.4522 15.2618C24.6188 15.4284 24.7125 15.6544 24.7125 15.8901C24.7125 16.1258 24.6188 16.3519 24.4522 16.5185C24.2855 16.6852 24.0595 16.7788 23.8238 16.7788Z" fill="#EAD798"/>
<path d="M23.8238 22.3027H9.78784C9.55215 22.3027 9.32611 22.2091 9.15946 22.0424C8.9928 21.8758 8.89917 21.6498 8.89917 21.4141C8.89917 21.1784 8.9928 20.9523 9.15946 20.7857C9.32611 20.619 9.55215 20.5254 9.78784 20.5254H23.8238C24.0595 20.5254 24.2855 20.619 24.4522 20.7857C24.6188 20.9523 24.7125 21.1784 24.7125 21.4141C24.7125 21.6498 24.6188 21.8758 24.4522 22.0424C24.2855 22.2091 24.0595 22.3027 23.8238 22.3027Z" fill="#EAD798"/>
<path d="M23.8238 27.8276H9.78784C9.55215 27.8276 9.32611 27.734 9.15946 27.5674C8.9928 27.4007 8.89917 27.1747 8.89917 26.939C8.89917 26.7033 8.9928 26.4772 9.15946 26.3106C9.32611 26.1439 9.55215 26.0503 9.78784 26.0503H23.8238C24.0595 26.0503 24.2855 26.1439 24.4522 26.3106C24.6188 26.4772 24.7125 26.7033 24.7125 26.939C24.7125 27.1747 24.6188 27.4007 24.4522 27.5674C24.2855 27.734 24.0595 27.8276 23.8238 27.8276Z" fill="#EAD798"/>
<path d="M60.1845 61.9551H38.2051C37.9694 61.9551 37.7434 61.8614 37.5767 61.6948C37.41 61.5281 37.3164 61.3021 37.3164 61.0664V32.502C37.3164 32.2663 37.41 32.0402 37.5767 31.8736C37.7434 31.7069 37.9694 31.6133 38.2051 31.6133H53.8203C54.056 31.6133 54.282 31.7069 54.4487 31.8736C54.6154 32.0402 54.709 32.2663 54.709 32.502V37.9787H60.1857C60.4214 37.9787 60.6475 38.0723 60.8141 38.239C60.9808 38.4057 61.0744 38.6317 61.0744 38.8674V61.0664C61.0744 61.1832 61.0514 61.2989 61.0066 61.4068C60.9619 61.5147 60.8963 61.6127 60.8137 61.6952C60.731 61.7778 60.6329 61.8432 60.5249 61.8878C60.417 61.9324 60.3013 61.9552 60.1845 61.9551ZM39.0938 60.1777H59.2958V39.7586H53.8203C53.5846 39.7586 53.3586 39.665 53.1919 39.4983C53.0253 39.3316 52.9316 39.1056 52.9316 38.8699V33.3906H39.0938V60.1777Z" fill="#EAD798"/>
<path d="M60.1349 39.8082C60.0182 39.8083 59.9026 39.7853 59.7948 39.7406C59.687 39.696 59.589 39.6305 59.5065 39.548L53.1119 33.1534C53.0293 33.0708 52.9639 32.9729 52.9192 32.865C52.8746 32.7572 52.8516 32.6417 52.8516 32.5249C52.8516 32.4082 52.8746 32.2927 52.9192 32.1849C52.9639 32.077 53.0293 31.9791 53.1119 31.8965C53.1944 31.814 53.2924 31.7485 53.4002 31.7039C53.508 31.6592 53.6236 31.6362 53.7403 31.6362C53.857 31.6362 53.9726 31.6592 54.0804 31.7039C54.1882 31.7485 54.2862 31.814 54.3687 31.8965L60.7633 38.2912C60.8876 38.4154 60.9723 38.5738 61.0066 38.7462C61.0409 38.9186 61.0233 39.0973 60.956 39.2597C60.8887 39.4221 60.7748 39.5609 60.6287 39.6585C60.4825 39.7561 60.3107 39.8083 60.1349 39.8082Z" fill="#EAD798"/>
<path d="M56.2122 45.3447H42.1763C41.9406 45.3447 41.7145 45.2511 41.5479 45.0844C41.3812 44.9178 41.2876 44.6917 41.2876 44.4561C41.2876 44.2204 41.3812 43.9943 41.5479 43.8277C41.7145 43.661 41.9406 43.5674 42.1763 43.5674H56.2122C56.4479 43.5674 56.6739 43.661 56.8406 43.8277C57.0072 43.9943 57.1009 44.2204 57.1009 44.4561C57.1009 44.6917 57.0072 44.9178 56.8406 45.0844C56.6739 45.2511 56.4479 45.3447 56.2122 45.3447Z" fill="#EAD798"/>
<path d="M56.2122 50.8696H42.1763C41.9406 50.8696 41.7145 50.776 41.5479 50.6093C41.3812 50.4427 41.2876 50.2166 41.2876 49.981C41.2876 49.7453 41.3812 49.5192 41.5479 49.3526C41.7145 49.1859 41.9406 49.0923 42.1763 49.0923H56.2122C56.4479 49.0923 56.6739 49.1859 56.8406 49.3526C57.0072 49.5192 57.1009 49.7453 57.1009 49.981C57.1009 50.2166 57.0072 50.4427 56.8406 50.6093C56.6739 50.776 56.4479 50.8696 56.2122 50.8696Z" fill="#EAD798"/>
<path d="M56.2122 56.3931H42.1763C41.9406 56.3931 41.7145 56.2994 41.5479 56.1328C41.3812 55.9661 41.2876 55.7401 41.2876 55.5044C41.2876 55.2687 41.3812 55.0427 41.5479 54.876C41.7145 54.7094 41.9406 54.6157 42.1763 54.6157H56.2122C56.4479 54.6157 56.6739 54.7094 56.8406 54.876C57.0072 55.0427 57.1009 55.2687 57.1009 55.5044C57.1009 55.7401 57.0072 55.9661 56.8406 56.1328C56.6739 56.2994 56.4479 56.3931 56.2122 56.3931Z" fill="#EAD798"/>
<path d="M51.7333 20.4124C51.4976 20.4124 51.2716 20.3188 51.1049 20.1521C50.9383 19.9855 50.8446 19.7594 50.8446 19.5237C50.845 17.5079 50.3337 15.5249 49.3587 13.7605C48.3836 11.9962 46.9767 10.5081 45.2697 9.43581C43.5628 8.36349 41.6115 7.74195 39.5988 7.62942C37.5861 7.51689 35.5777 7.91704 33.7618 8.7924L34.6035 10.2511C36.1625 9.52442 37.8795 9.20236 39.5959 9.31468C41.3122 9.42699 42.9726 9.97006 44.4236 10.8937C45.8746 11.8173 47.0695 13.0918 47.8977 14.5992C48.726 16.1067 49.161 17.7986 49.1625 19.5187C49.1625 19.7544 49.0689 19.9804 48.9022 20.1471C48.7356 20.3137 48.5095 20.4073 48.2738 20.4073C48.0382 20.4073 47.8121 20.3137 47.6455 20.1471C47.4788 19.9804 47.3852 19.7544 47.3852 19.5187C47.3847 18.0348 46.9938 16.5772 46.2517 15.2922C45.5096 14.0072 44.4425 12.9401 43.1575 12.1981C41.8724 11.4561 40.4148 11.0653 38.9309 11.0649C37.4471 11.0645 35.9892 11.4546 34.7038 12.196C34.4998 12.3138 34.2573 12.3457 34.0297 12.2848C33.8021 12.2238 33.608 12.075 33.4902 11.871L31.7623 8.88888C31.6445 8.68483 31.6126 8.44235 31.6736 8.21476C31.7345 7.98718 31.8833 7.7931 32.0873 7.67521C34.1683 6.47358 36.529 5.84092 38.9321 5.84082C41.3351 5.84072 43.6958 6.47319 45.777 7.67464C47.8581 8.8761 49.5863 10.6042 50.7878 12.6853C51.9894 14.7664 52.622 17.1271 52.622 19.5301C52.6203 19.7647 52.5259 19.9891 52.3595 20.1544C52.193 20.3197 51.9679 20.4124 51.7333 20.4124Z" fill="#EAD798"/>
<path d="M50.0042 28.4647C49.8482 28.4647 49.695 28.4236 49.56 28.3456C49.4249 28.2676 49.3128 28.1555 49.2348 28.0204L44.5871 19.9678C44.5091 19.8327 44.468 19.6795 44.468 19.5235C44.468 19.3675 44.509 19.2143 44.587 19.0792C44.665 18.9441 44.7771 18.8319 44.9122 18.7539C45.0472 18.6759 45.2004 18.6348 45.3564 18.6348H48.2763C48.512 18.6348 48.7381 18.7284 48.9047 18.8951C49.0714 19.0617 49.165 19.2877 49.165 19.5234C49.165 19.7591 49.0714 19.9852 48.9047 20.1518C48.7381 20.3185 48.512 20.4121 48.2763 20.4121H46.8951L50.0042 25.7987L53.1145 20.4121H51.7333C51.4976 20.4121 51.2715 20.3185 51.1049 20.1518C50.9382 19.9852 50.8446 19.7591 50.8446 19.5234C50.8446 19.2877 50.9382 19.0617 51.1049 18.8951C51.2715 18.7284 51.4976 18.6348 51.7333 18.6348H54.6532C54.8093 18.6346 54.9626 18.6755 55.0979 18.7535C55.2331 18.8314 55.3454 18.9435 55.4235 19.0787C55.5017 19.2138 55.5428 19.3671 55.5429 19.5232C55.5429 19.6793 55.5018 19.8326 55.4238 19.9678L50.7735 28.0204C50.6955 28.1555 50.5834 28.2676 50.4483 28.3456C50.3133 28.4236 50.1601 28.4647 50.0042 28.4647Z" fill="#EAD798"/>
<path d="M26.9608 59.1952C23.3319 59.1895 19.8533 57.7454 17.2873 55.1794C14.7213 52.6134 13.2772 49.1347 13.2715 45.5059C13.2715 45.2702 13.3651 45.0441 13.5318 44.8775C13.6984 44.7108 13.9245 44.6172 14.1602 44.6172C14.3958 44.6172 14.6219 44.7108 14.7885 44.8775C14.9552 45.0441 15.0488 45.2702 15.0488 45.5059C15.0479 47.522 15.5588 49.5054 16.5336 51.2703C17.5084 53.0352 18.9152 54.5237 20.6222 55.5966C22.3292 56.6694 24.2806 57.2915 26.2936 57.4044C28.3066 57.5173 30.3153 57.1175 32.1316 56.2423L31.2887 54.7836C29.7297 55.511 28.0126 55.8336 26.2959 55.7216C24.5793 55.6096 22.9186 55.0666 21.4674 54.1428C20.0162 53.2191 18.8213 51.9443 17.9932 50.4365C17.1651 48.9286 16.7306 47.2363 16.7297 45.516C16.7297 45.2803 16.8233 45.0543 16.99 44.8876C17.1566 44.721 17.3827 44.6273 17.6184 44.6273C17.854 44.6273 18.0801 44.721 18.2467 44.8876C18.4134 45.0543 18.507 45.2803 18.507 45.516C18.5071 47 18.8978 48.4579 19.6398 49.7431C20.3818 51.0283 21.449 52.0956 22.7341 52.8377C24.0193 53.5798 25.4771 53.9705 26.9611 53.9707C28.4451 53.9709 29.9031 53.5805 31.1884 52.8387C31.3924 52.7209 31.6349 52.689 31.8625 52.7499C32.0901 52.8109 32.2842 52.9597 32.4021 53.1637L34.1312 56.1572C34.2489 56.3613 34.2809 56.6038 34.2199 56.8313C34.159 57.0589 34.0101 57.253 33.8062 57.3709C31.7236 58.5682 29.363 59.1973 26.9608 59.1952Z" fill="#EAD798"/>
<path d="M20.537 46.3944H17.6171C17.3814 46.3944 17.1553 46.3008 16.9887 46.1342C16.822 45.9675 16.7284 45.7415 16.7284 45.5058C16.7284 45.2701 16.822 45.044 16.9887 44.8774C17.1553 44.7107 17.3814 44.6171 17.6171 44.6171H18.997L15.8892 39.2305L12.7789 44.6171H14.1601C14.3958 44.6171 14.6219 44.7107 14.7885 44.8774C14.9552 45.044 15.0488 45.2701 15.0488 45.5058C15.0488 45.7415 14.9552 45.9675 14.7885 46.1342C14.6219 46.3008 14.3958 46.3944 14.1601 46.3944H11.2402C11.0842 46.3944 10.931 46.3533 10.796 46.2753C10.6609 46.1973 10.5488 46.0851 10.4708 45.95C10.3928 45.8149 10.3518 45.6617 10.3518 45.5057C10.3518 45.3497 10.3929 45.1965 10.4709 45.0614L15.1199 37.0088C15.1979 36.8738 15.3101 36.7618 15.4451 36.6839C15.5802 36.606 15.7333 36.5649 15.8892 36.5649C16.0451 36.5649 16.1983 36.606 16.3333 36.6839C16.4684 36.7618 16.5805 36.8738 16.6586 37.0088L21.3063 45.0614C21.3843 45.1965 21.4254 45.3497 21.4254 45.5057C21.4254 45.6617 21.3844 45.8149 21.3064 45.95C21.2284 46.0851 21.1163 46.1973 20.9812 46.2753C20.8462 46.3533 20.693 46.3944 20.537 46.3944Z" fill="#EAD798"/>
</svg>
