<svg width="60" height="61" viewBox="0 0 60 61" fill="none" xmlns="http://www.w3.org/2000/svg">
<g clip-path="url(#clip0_99_1274)">
<path d="M51.9379 37.0881C51.4597 36.8081 50.8476 36.9681 50.5694 37.4452L39.1029 57.002C38.2746 58.4354 36.4372 58.9296 35.0477 58.1274L32.814 56.6799C32.35 56.3788 31.7307 56.5109 31.4306 56.9749C31.1294 57.4381 31.2625 58.0583 31.7256 58.3584L34.0033 59.8328C34.7885 60.287 35.6478 60.5021 36.496 60.5021C38.2255 60.5021 39.908 59.6068 40.8313 58.0083L52.2936 38.4563C52.573 37.9803 52.414 37.3671 51.9379 37.0881Z" fill="#EAD798"/>
<path d="M54.9636 0.501953H38.9589C35.8639 0.501953 33.5583 1.48721 31.2496 3.79591C30.8585 4.18709 30.8585 4.81927 31.2496 5.21032C31.6408 5.6015 32.2729 5.6015 32.664 5.21032C34.6126 3.26173 36.3781 2.50248 38.9589 2.50248H54.9636C56.6181 2.50248 57.9645 3.8489 57.9645 5.50338V21.5083C57.9645 24.0901 57.2053 25.8545 55.2557 27.8031L25.5488 57.5522C24.4144 58.6845 22.4378 58.6855 21.3056 57.5522L2.91497 39.1615C2.34784 38.5944 2.03568 37.8412 2.03568 37.0389C2.03568 36.2377 2.34773 35.4844 2.91391 34.9182L29.764 8.10619C30.1771 8.21123 30.5913 8.31626 31.0204 8.43125C35.0897 9.52154 38.3007 10.6479 40.6943 11.6532C40.2232 12.5255 39.9591 13.5028 39.9591 14.5061C39.9591 17.8161 42.6509 20.5079 45.9609 20.5079C49.2709 20.5079 51.9627 17.8161 51.9627 14.5061C51.9627 11.1961 49.2709 8.50428 45.9609 8.50428C45.4077 8.50428 44.9607 8.95243 44.9607 9.50454C44.9607 10.0567 45.4077 10.5048 45.9609 10.5048C48.1676 10.5048 49.9621 12.2994 49.9621 14.506C49.9621 16.7127 48.1675 18.5071 45.9609 18.5071C43.7543 18.5071 41.9598 16.7126 41.9598 14.506C41.9598 13.7858 42.1568 13.0825 42.52 12.4704C44.2525 13.2996 45.3358 13.9989 45.764 14.445C45.5809 14.4971 45.2978 14.5551 44.8708 14.592C44.3206 14.641 43.9135 15.1262 43.9625 15.6763C44.0086 16.1964 44.4446 16.5896 44.9578 16.5896C44.9868 16.5896 45.0168 16.5876 45.0468 16.5856C45.662 16.5306 47.5336 16.3656 47.8937 15.0241C48.8789 11.344 34.4417 7.27673 31.5377 6.49848C27.0953 5.30809 22.8291 4.49386 19.5231 4.20584C15.4609 3.85077 13.4822 4.31287 13.1102 5.70324C12.9321 6.37048 12.457 8.14195 20.5674 11.3399C21.0806 11.5429 21.6628 11.2909 21.8648 10.7768C22.0669 10.2626 21.8148 9.68143 21.3007 9.47934C17.3825 7.93388 15.7589 6.8015 15.2388 6.26838C16.4722 5.90627 20.6905 6.01131 27.4836 7.55572L1.50056 33.5029C0.555274 34.4481 0.0351562 35.7035 0.0351562 37.0389C0.0351562 38.3753 0.555274 39.6316 1.50056 40.576L19.8911 58.9665C20.8343 59.9107 22.0907 60.4309 23.4261 60.4309C24.7626 60.4309 26.0179 59.9108 26.9632 58.9655L56.6711 29.2175C58.9807 26.9088 59.9651 24.6032 59.9651 21.5083V5.5035C59.9652 2.7456 57.7215 0.501953 54.9636 0.501953Z" fill="#EAD798"/>
<path d="M32.7518 26.8027C32.3608 26.4115 31.7285 26.4115 31.3374 26.8027L30.7973 27.3428C30.006 26.8187 29.0618 26.5096 28.0435 26.5096C25.2857 26.5096 23.0419 28.7532 23.0419 31.5111C23.0419 33.0016 23.6571 34.18 24.1933 35.0412C24.6935 35.8444 25.0426 36.9887 25.0426 37.5129C25.0426 39.1674 23.6961 40.5139 22.0417 40.5139C20.3872 40.5139 19.0408 39.1674 19.0408 37.5129C19.0408 36.9057 19.2218 36.3206 19.5639 35.8205C19.876 35.3653 19.759 34.7422 19.3038 34.4301C18.8477 34.119 18.2255 34.235 17.9134 34.6902C17.3422 35.5245 17.0401 36.5007 17.0401 37.5131C17.0401 38.5314 17.3492 39.4756 17.8733 40.2669L17.3332 40.807C16.942 41.1981 16.942 41.8304 17.3332 42.2214C17.5282 42.4165 17.7844 42.5145 18.0404 42.5145C18.2965 42.5145 18.5525 42.4165 18.7476 42.2214L19.2877 41.6813C20.079 42.2054 21.0232 42.5145 22.0415 42.5145C24.7993 42.5145 27.0431 40.2708 27.0431 37.5129C27.0431 36.5387 26.559 35.0542 25.8917 33.9829C25.2966 33.0277 25.0424 32.2884 25.0424 31.5111C25.0424 29.8567 26.3889 28.5102 28.0433 28.5102C28.8456 28.5102 29.5708 28.8304 30.1089 29.3455C30.1259 29.3635 30.1319 29.3874 30.1489 29.4055C30.167 29.4225 30.1909 29.4284 30.2089 29.4454C30.7241 29.9836 31.0441 30.7089 31.0441 31.511C31.0441 32.3132 30.731 33.0684 30.1629 33.6366C29.7717 34.0267 29.7717 34.66 30.1618 35.051C30.5509 35.4422 31.1852 35.4412 31.5762 35.0521C32.5225 34.1057 33.0447 32.8484 33.0447 31.511C33.0447 30.4927 32.7355 29.5485 32.2114 28.7572L32.7516 28.2171C33.143 27.826 33.143 27.1937 32.7518 26.8027Z" fill="#EAD798"/>
</g>
<defs>
<clipPath id="clip0_99_1274">
<rect width="60" height="60" fill="white" transform="translate(0 0.501953)"/>
</clipPath>
</defs>
</svg>
