<svg width="60" height="61" viewBox="0 0 60 61" fill="none" xmlns="http://www.w3.org/2000/svg">
<g clip-path="url(#clip0_99_1321)">
<path d="M48.328 34.5691C47.78 34.5133 47.2879 34.9135 47.2321 35.463C47.1764 36.0125 47.5765 36.5031 48.126 36.5588C53.7551 37.1305 58 41.835 58 47.502C58 53.5673 53.0654 58.502 47 58.502C40.9346 58.502 36 53.5673 36 47.502C36 42.6836 39.082 38.4702 43.67 37.0148C44.0657 36.8928 44.332 36.5432 44.37 36.159C44.3773 36.0871 44.375 36.1583 44.375 34.8768C44.375 32.6712 42.5806 30.8768 40.375 30.8768H16.875C16.1466 30.8768 15.4639 31.0735 14.875 31.415V25.377C14.875 23.7228 13.5293 22.377 11.875 22.377H10.5C8.84587 22.377 7.5 23.7228 7.5 25.377V46.127C7.5 47.7811 8.84587 49.127 10.5 49.127H11.875C13.5293 49.127 14.875 47.7811 14.875 46.127V43.627H30.4476C30.9999 43.627 31.4476 43.1792 31.4476 42.627C31.4476 42.0747 30.9999 41.627 30.4476 41.627H13.875C13.3228 41.627 12.875 42.0747 12.875 42.627V46.127C12.875 46.6783 12.4264 47.127 11.875 47.127H10.5C9.94862 47.127 9.5 46.6783 9.5 46.127V25.377C9.5 24.8256 9.94862 24.377 10.5 24.377H11.875C12.4264 24.377 12.875 24.8256 12.875 25.377V37.002C12.875 37.5542 13.3228 38.002 13.875 38.002H34.2944C34.8466 38.002 35.2944 37.5542 35.2944 37.002C35.2944 36.4497 34.8466 36.002 34.2944 36.002H14.875V34.877C14.875 33.7742 15.7723 32.877 16.875 32.877H40.375C41.4777 32.877 42.375 33.7742 42.375 34.877V35.3512C35.0686 38.1245 31.8989 46.667 35.4701 53.502H4C2.89725 53.502 2 52.6047 2 51.502V9.87695C2 8.7742 2.89725 7.87695 4 7.87695H10.704C11.1854 10.9187 13.825 13.252 17 13.252C17.5522 13.252 18 12.8042 18 12.252C18 11.6997 17.5522 11.252 17 11.252C14.5876 11.252 12.625 9.28933 12.625 6.87695C12.625 4.46458 14.5876 2.50195 17 2.50195C19.0683 2.50195 20.8046 3.94508 21.2584 5.87695H18.5766C18.0244 5.87695 17.5766 6.3247 17.5766 6.87695C17.5766 7.4292 18.0244 7.87695 18.5766 7.87695H31.7041C32.1855 10.9187 34.8251 13.252 38.0001 13.252C38.5524 13.252 39.0001 12.8042 39.0001 12.252C39.0001 11.6997 38.5524 11.252 38.0001 11.252C35.5877 11.252 33.6251 9.28933 33.6251 6.87695C33.6251 4.46458 35.5877 2.50195 38.0001 2.50195C40.0684 2.50195 41.8047 3.94508 42.2585 5.87695H38.7702C38.218 5.87695 37.7702 6.3247 37.7702 6.87695C37.7702 7.4292 38.218 7.87695 38.7702 7.87695H51C52.1027 7.87695 53 8.7742 53 9.87695V16.002H7.15725C6.605 16.002 6.15725 16.4497 6.15725 17.002C6.15725 17.5542 6.605 18.002 7.15725 18.002H53V31.877C53 32.4292 53.4478 32.877 54 32.877C54.5522 32.877 55 32.4292 55 31.877V9.87695C55 7.67133 53.2056 5.87695 51 5.87695H44.296C43.8146 2.8352 41.175 0.501953 38 0.501953C34.825 0.501953 32.1854 2.8352 31.704 5.87695H23.2959C22.8146 2.8352 20.175 0.501953 17 0.501953C13.825 0.501953 11.1854 2.8352 10.704 5.87695H4C1.79437 5.87695 0 7.67133 0 9.87695V51.502C0 53.7076 1.79437 55.502 4 55.502H36.76C39.1416 58.5436 42.8462 60.502 47 60.502C54.1683 60.502 60 54.6702 60 47.502C60 40.8028 54.9162 35.2381 48.328 34.5691Z" fill="#EAD798"/>
<path d="M51.3946 43.1073C51.0041 42.7168 50.371 42.7168 49.9805 43.1073L47 46.0878L44.0196 43.1075C43.6291 42.717 42.996 42.717 42.6055 43.1075C42.2148 43.498 42.2148 44.1311 42.6055 44.5216L45.5858 47.502L42.6055 50.4823C42.2148 50.8728 42.2148 51.506 42.6055 51.8965C42.9961 52.2871 43.6291 52.287 44.0196 51.8965L47 48.9161L49.9803 51.8965C50.371 52.2871 51.004 52.287 51.3945 51.8965C51.7851 51.506 51.7851 50.8728 51.3945 50.4823L48.4141 47.502L51.3945 44.5216C51.7851 44.1311 51.7851 43.4978 51.3946 43.1073Z" fill="#EAD798"/>
</g>
<defs>
<clipPath id="clip0_99_1321">
<rect width="60" height="60" fill="white" transform="translate(0 0.501953)"/>
</clipPath>
</defs>
</svg>
