<svg width="182" height="119" viewBox="0 0 182 119" fill="none" xmlns="http://www.w3.org/2000/svg">
<g clip-path="url(#clip0_99_1431)">
<path d="M29.6812 115.613C29.6812 115.508 29.7411 115.41 29.8236 115.41H46.8121C46.8945 115.41 46.962 115.508 46.962 115.613V115.854C46.962 115.959 46.8945 116.057 46.8121 116.057H29.8236C29.7486 116.057 29.6812 115.967 29.6812 115.854V115.613Z" fill="#EAD798"/>
<path d="M153.031 115.613C153.031 115.508 153.091 115.41 153.174 115.41H170.162C170.245 115.41 170.312 115.508 170.312 115.613V115.854C170.312 115.959 170.245 116.057 170.162 116.057H153.174C153.099 116.057 153.031 115.967 153.031 115.854V115.613Z" fill="#EAD798"/>
<path d="M2.54905 95.2164C3.25378 95.2164 3.87604 95.4573 4.40834 95.9314C4.93313 96.4056 5.20303 97.0002 5.20303 97.7227C5.20303 98.927 4.44582 99.9656 2.9314 100.846C5.33798 102.261 8.1419 102.961 11.3282 102.961C17.7607 102.961 24.3732 100.252 31.1955 94.8251C34.0669 92.5596 39.9147 86.8396 48.7538 77.6573C56.0035 70.1084 62.1211 64.9678 67.0992 62.2207C64.5502 59.7972 61.064 57.9607 56.6333 56.7189C52.8697 55.6577 48.9112 55.1308 44.7578 55.1308C37.3657 55.1308 30.7457 56.478 24.8905 59.18C18.3005 62.1755 13.2999 66.6462 9.88123 72.5695C8.68919 74.6242 8.08942 76.6413 8.08942 78.6207C8.08942 81.1797 9.23648 83.1516 11.5306 84.5365C13.4574 85.7106 15.774 86.3052 18.4804 86.3052C22.8887 86.3052 28.2267 84.6795 34.4868 81.4281C41.579 77.7853 45.1252 73.9845 45.1252 70.0256C45.1252 68.3923 44.308 67.0903 42.6811 66.1194C41.3016 65.2915 39.7572 64.87 38.0329 64.87C29.8161 64.87 22.1765 70.2137 15.1067 80.9087L14.7918 81.0442L14.312 80.698L14.3795 80.3894C16.2388 76.0918 19.4925 72.2985 24.1557 69.0095C28.9314 65.6301 33.6021 63.9367 38.1679 63.9367C40.0946 63.9367 41.8264 64.4334 43.3634 65.4269C45.1327 66.5785 46.0173 68.0913 46.0173 69.9503C46.0173 74.8124 42.6211 79.0271 35.8213 82.6022C30.0185 85.6429 24.4406 87.1632 19.0877 87.1632C16.0139 87.1632 13.3824 86.5761 11.2007 85.402C8.47177 83.9268 7.1073 81.7592 7.1073 78.9067C7.1073 76.7391 7.78204 74.4812 9.13902 72.133C12.5802 66.0742 17.6632 61.5132 24.3881 58.45C30.3559 55.7103 37.1258 54.333 44.7053 54.333C49.0012 54.333 53.1021 54.8975 57.0306 56.0264C61.6638 57.336 65.2924 59.2553 67.9089 61.7616C70.1131 60.3541 72.6696 58.8865 75.586 57.336L75.8634 57.8554L75.6909 58.2317C73.6067 59.2478 71.1926 60.6778 68.4637 62.5217C69.9331 64.5689 70.6679 66.6688 70.6679 68.8138C70.6679 72.6146 69.3559 75.6478 66.7469 77.9057C65.6448 78.8992 62.7209 80.6227 57.9677 83.0914C58.6575 84.6795 59.0023 86.1923 59.0023 87.6148C59.0023 91.8296 56.9331 95.6906 52.8022 99.1904C48.8512 102.555 44.7428 104.233 40.477 104.233C37.4706 104.233 35.9637 103.142 35.9637 100.952C35.9637 99.2054 38.0104 96.8722 42.0963 93.9746C46.0698 91.1597 48.9712 89.7824 50.808 89.8275L51.1529 90.2039L50.8755 90.5501C48.214 91.5436 45.47 92.9209 42.6511 94.6971C38.8426 97.1131 36.9383 99.1904 36.9383 100.921C36.9383 101.636 37.2907 102.239 38.0029 102.72C38.6027 103.112 39.2774 103.307 40.0346 103.307C43.5208 103.307 47.2769 101.095 51.2878 96.669C55.2613 92.3188 57.2405 88.3599 57.2405 84.8149C57.2405 84.401 57.1655 83.9193 57.0006 83.3624C56.1085 83.8741 55.0214 84.1225 53.7469 84.1225C52.9897 84.1225 52.2624 83.972 51.5577 83.6709C50.6655 83.2796 50.2157 82.7452 50.2157 82.0753C50.2157 80.7883 51.4302 80.1411 53.8593 80.1411C55.0514 80.1411 56.2359 80.8109 57.398 82.1431C60.4268 80.2991 62.9233 78.0337 64.8876 75.3317C67.1592 72.2458 68.2913 69.1149 68.2913 65.9312C68.2913 64.9904 68.0963 63.9969 67.7065 62.9583C63.853 64.9377 60.0594 68.2945 56.3409 73.0286C50.0508 80.984 46.1073 85.8461 44.5029 87.6298C39.8397 92.8381 35.274 96.7368 30.7982 99.3183C25.2878 102.502 19.3126 104.09 12.8576 104.09C10.2186 104.09 7.64709 103.699 5.14305 102.908C1.70188 101.817 -0.0224609 100.282 -0.0224609 98.2947C-0.0224609 97.512 0.217447 96.797 0.697262 96.1648C1.17708 95.525 1.79184 95.2089 2.52656 95.2089L2.54905 95.2164ZM51.2653 82.0829C51.2653 82.843 52.1275 83.2269 53.8518 83.2269C54.9314 83.2269 55.7861 82.9936 56.4383 82.5345C55.5387 81.541 54.5565 81.0517 53.477 81.0517C52.0075 81.0517 51.2728 81.398 51.2728 82.0904L51.2653 82.0829Z" fill="#EAD798"/>
<path d="M73.8241 96.5338L74.169 97.0832L74.0341 97.4294C67.7665 101.968 63.4406 104.241 61.0566 104.241C58.0502 104.241 56.5508 103.074 56.5508 100.749C56.5508 98.2573 58.1252 95.751 61.2665 93.2146C64.2728 90.7911 67.0392 89.5869 69.5658 89.5869C71.0127 89.5869 71.7324 90.1815 71.7324 91.3857C71.7324 92.7706 70.6304 93.9899 68.4262 95.0511C66.3795 95.9241 64.3403 96.8123 62.3011 97.7079C60.0969 98.8595 58.9948 100.267 58.9948 101.923C58.9948 102.751 59.5121 103.165 60.5467 103.165C62.7284 103.165 65.4724 102.058 68.7936 99.8454C72.1073 97.6326 73.7941 96.5263 73.8391 96.5263L73.8241 96.5338ZM62.9458 96.0521C68.1113 94.3511 70.6903 92.8007 70.6903 91.4234C70.6903 90.889 70.4429 90.6256 69.9331 90.6256C68.1638 90.6256 65.8397 92.4394 62.9458 96.0521Z" fill="#EAD798"/>
<path d="M88.4584 96.6391L88.6984 96.9854C88.6759 98.0692 86.8166 99.5669 83.1205 101.479C79.6044 103.3 77.1828 104.211 75.8558 104.211C74.4088 104.211 73.6891 103.458 73.6891 101.968C73.6891 100.816 74.139 99.582 75.0311 98.2724C75.1436 98.1369 75.9832 97.0983 77.5426 95.164C76.553 95.8564 75.316 96.6166 73.8241 97.4445L73.4492 96.9929L73.6591 96.6166C75.286 95.5553 76.9279 94.5016 78.5772 93.4329C80.459 92.1459 81.9285 90.889 82.9856 89.6697C85.2797 86.9075 87.5738 84.1378 89.8754 81.3756C94.1862 76.3329 97.9798 72.3364 101.234 69.386C105.777 65.3293 109.263 63.3047 111.7 63.3047C112.367 63.3047 112.929 63.5606 113.409 64.0799C113.874 64.5992 114.114 65.1938 114.114 65.8637C114.114 68.2646 112.404 70.8838 108.986 73.7438C106.781 75.5878 103.295 77.9134 98.5196 80.7208C93.9089 83.4378 91.1499 85.1764 90.2578 85.9366C88.241 87.7354 85.9019 90.2342 83.233 93.4329C81.0288 96.0596 78.8396 98.7014 76.658 101.351C76.4256 101.607 76.1782 102.021 75.9008 102.593L76.4855 102.969C78.2099 103.037 80.549 102.051 83.5103 99.9959C86.7491 97.7606 88.3985 96.6467 88.4659 96.6467L88.4584 96.6391ZM91.0749 84.4388C98.1222 80.0359 102.418 77.2812 103.955 76.1748C110.133 71.7267 113.214 68.2872 113.214 65.8411C113.214 64.7347 112.637 64.1777 111.49 64.1777C108.873 64.1777 105.162 66.9399 100.371 72.4719C98.9694 74.0599 95.8731 78.0489 91.0749 84.4313V84.4388Z" fill="#EAD798"/>
<path d="M102.92 96.6391L103.16 96.9854C103.138 98.0692 101.278 99.5669 97.5824 101.479C94.0663 103.3 91.6447 104.211 90.3177 104.211C88.8708 104.211 88.151 103.458 88.151 101.968C88.151 100.816 88.6009 99.582 89.493 98.2724C89.6055 98.1369 90.4452 97.0983 92.0046 95.164C91.0149 95.8564 89.7779 96.6166 88.286 97.4445L87.9111 96.9929L88.1136 96.6166C89.7404 95.5553 91.3823 94.5016 93.0392 93.4329C94.9209 92.1459 96.3904 90.889 97.4475 89.6697C99.7416 86.9075 102.036 84.1378 104.337 81.3756C108.648 76.3329 112.442 72.3364 115.695 69.386C120.239 65.3293 123.725 63.3047 126.161 63.3047C126.829 63.3047 127.391 63.5606 127.863 64.0799C128.336 64.5992 128.568 65.1938 128.568 65.8637C128.568 68.2646 126.859 70.8838 123.44 73.7438C121.236 75.5878 117.75 77.9134 112.974 80.7208C108.363 83.4378 105.604 85.1764 104.712 85.9366C102.695 87.7354 100.349 90.2342 97.6874 93.4329C95.4832 96.0596 93.2941 98.7014 91.1124 101.351C90.8875 101.607 90.6326 102.021 90.3552 102.593L90.94 102.969C92.6643 103.037 95.0034 102.051 97.9648 99.9959C101.204 97.7606 102.853 96.6467 102.928 96.6467L102.92 96.6391ZM105.537 84.4388C112.584 80.0359 116.872 77.2812 118.409 76.1748C124.587 71.7267 127.668 68.2872 127.668 65.8411C127.668 64.7347 127.099 64.1777 125.952 64.1777C123.335 64.1777 119.631 66.9399 114.833 72.4719C113.431 74.0599 110.335 78.0489 105.537 84.4313V84.4388Z" fill="#EAD798"/>
<path d="M118.342 96.5338L118.687 97.0832L118.552 97.4294C112.284 101.968 107.959 104.241 105.567 104.241C102.561 104.241 101.061 103.074 101.061 100.749C101.061 98.2573 102.636 95.751 105.777 93.2146C108.783 90.7911 111.55 89.5869 114.076 89.5869C115.523 89.5869 116.25 90.1815 116.25 91.3857C116.25 92.7706 115.148 93.9899 112.944 95.0511C110.897 95.9241 108.858 96.8123 106.812 97.7079C104.607 98.8595 103.505 100.267 103.505 101.923C103.505 102.751 104.023 103.165 105.057 103.165C107.231 103.165 109.983 102.058 113.304 99.8454C116.618 97.6326 118.297 96.5263 118.35 96.5263L118.342 96.5338ZM107.464 96.0521C112.629 94.3511 115.208 92.8007 115.208 91.4234C115.208 90.889 114.953 90.6256 114.451 90.6256C112.682 90.6256 110.35 92.4394 107.464 96.0521Z" fill="#EAD798"/>
<path d="M121.888 102.48C121.888 102.894 122.323 103.104 123.193 103.104C125.809 103.104 129.355 101.132 133.831 97.1961L133.659 96.5037C133.659 95.307 134.333 93.877 135.69 92.2136C137.092 90.46 138.359 89.5869 139.514 89.5869C140.106 89.5869 140.414 89.888 140.414 90.4826C140.414 92.3265 138.734 94.607 135.391 97.3241C135.735 97.6251 136.125 97.7756 136.56 97.7756C137.182 97.7756 137.88 97.58 138.659 97.1886C139.439 96.7972 140.001 96.5789 140.346 96.5338L140.691 97.0531L140.489 97.4294C139.132 98.3476 137.805 98.8143 136.493 98.8143C135.803 98.8143 135.173 98.5509 134.596 98.0165C129.663 102.073 125.929 104.098 123.41 104.098C121.229 104.098 120.141 103.104 120.141 101.11C120.141 99.6723 121.401 97.6552 123.927 95.0661C126.454 92.4695 127.728 91.0621 127.751 90.8288L127.271 90.4826C126.237 90.4374 124.49 91.604 122.038 93.9748C119.579 96.3456 118.32 97.5348 118.252 97.5348L117.81 97.1886C117.832 96.3532 119.234 94.878 122.023 92.7631C124.812 90.6481 126.686 89.5944 127.654 89.5944C128.966 89.5944 129.618 90.4299 129.618 92.0932C129.618 93.5308 128.328 95.5027 125.764 98.0165C123.193 100.53 121.903 102.021 121.903 102.48H121.888Z" fill="#EAD798"/>
<path d="M140.414 97.4669L140.001 96.9476C140.046 96.7444 141.373 95.7133 143.967 93.8693C146.749 91.8372 148.465 90.4372 149.125 89.6545H153.668C151.667 91.8898 149.665 94.1327 147.663 96.3906C144.387 100.124 142.73 102.224 142.685 102.683L143.165 102.991C146.426 103.149 152.072 98.7088 160.101 89.647H164.749C162.725 91.8823 160.693 94.1177 158.669 96.353C155.333 100.086 153.661 102.171 153.661 102.607C153.661 102.931 153.901 103.089 154.388 103.089C157.2 103.089 161.106 100.914 166.129 96.5562L166.369 97.0078L166.264 97.3164C161.331 101.9 157.125 104.196 153.661 104.196C152.237 104.196 151.524 103.518 151.524 102.156C151.524 101.14 151.974 99.8678 152.866 98.3174C147.918 102.329 144.327 104.331 142.093 104.331C140.803 104.331 140.159 103.586 140.159 102.088C140.159 100.869 141.651 98.4228 144.634 94.7649C143.465 95.6154 142.048 96.5186 140.399 97.4594L140.414 97.4669Z" fill="#EAD798"/>
<path d="M181.655 96.5338L182 97.0832L181.865 97.4294C175.597 101.968 171.272 104.241 168.88 104.241C165.874 104.241 164.374 103.074 164.374 100.749C164.374 98.2573 165.949 95.751 169.09 93.2146C172.096 90.7911 174.863 89.5869 177.389 89.5869C178.836 89.5869 179.563 90.1815 179.563 91.3857C179.563 92.7706 178.461 93.9899 176.257 95.0511C174.218 95.9241 172.171 96.8123 170.132 97.7079C167.928 98.8595 166.826 100.267 166.826 101.923C166.826 102.751 167.343 103.165 168.378 103.165C170.559 103.165 173.311 102.058 176.625 99.8454C179.946 97.6326 181.625 96.5263 181.67 96.5263L181.655 96.5338ZM170.777 96.0521C175.942 94.3511 178.521 92.8007 178.521 91.4234C178.521 90.889 178.266 90.6256 177.764 90.6256C175.995 90.6256 173.671 92.4394 170.777 96.0521Z" fill="#EAD798"/>
<path d="M114.25 10.375L89.125 8L84.125 12.375L80.875 26.375L74.125 38.75L79.5 43.25L95 52.375L112.25 45.375L119.5 28.75L122.125 14.875L114.25 10.375Z" fill="#69170E"/>
<path d="M107.111 29.9174C107.111 30.384 107.614 30.6098 108.626 30.6098C109.256 30.6098 109.758 30.4668 110.133 30.1883C109.608 29.5862 109.031 29.2852 108.401 29.2852C107.546 29.2852 107.111 29.4959 107.111 29.9174Z" fill="#EAD798"/>
<path d="M128.568 33.7484C128.433 32.3109 127.721 30.625 126.431 28.6756C127.293 27.3886 127.901 26.1543 128.231 24.9802C128.605 23.6405 128.643 22.3008 128.328 20.946C128.013 19.5913 127.421 18.4773 126.544 17.6043C126.101 17.1602 125.269 16.528 124.04 15.7076C122.443 14.6464 121.513 13.9916 121.258 13.7357C120.636 13.1185 120.336 12.2756 120.351 11.2144C120.366 10.1531 120.913 8.79086 122.008 7.13505L121.431 6.55552C119.759 7.67695 118.394 8.23391 117.345 8.22638C116.288 8.22638 115.448 7.90274 114.811 7.25547C114.383 6.82647 113.844 6.08135 113.199 5.02766C112.314 3.59011 111.632 2.63426 111.167 2.16762C109.54 0.534392 107.464 -0.17309 104.945 0.0527024C103.528 0.180651 101.863 0.888133 99.9365 2.1601C98.6545 1.30209 97.4325 0.692447 96.2629 0.361285C94.9359 -0.0150352 93.5939 -0.0451408 92.2445 0.270968C90.895 0.587077 89.7854 1.18166 88.9082 2.05473C88.4659 2.49878 87.8361 3.34174 87.0115 4.56855C85.9544 6.1792 85.3021 7.10494 85.0472 7.36084C84.4325 7.97801 83.5928 8.27906 82.5357 8.27154C81.4786 8.26401 80.1216 7.70706 78.4722 6.6082L77.895 7.18774C79.012 8.86612 79.5668 10.2359 79.5593 11.2896C79.5593 12.3433 79.2295 13.1938 78.5922 13.8336C78.1649 14.2701 77.4227 14.8045 76.3656 15.4517C74.9336 16.3474 73.9815 17.0247 73.5167 17.4914C71.8898 19.1246 71.1851 21.2019 71.41 23.7383C71.5374 25.1683 72.2496 26.8467 73.5242 28.7885C72.6695 30.068 72.0622 31.3023 71.7323 32.4689C71.3575 33.8011 71.3275 35.1483 71.6424 36.5031C71.9573 37.8578 72.5495 38.9717 73.4267 39.8448C73.869 40.2889 74.7012 40.9211 75.9307 41.7415C77.5276 42.8027 78.4573 43.4575 78.7122 43.7134C79.3269 44.3305 79.6343 45.1735 79.6193 46.2347C79.6043 47.2959 79.057 48.6582 77.9624 50.314L78.5397 50.8936C80.2116 49.7721 81.5686 49.2152 82.6257 49.2227C83.6752 49.2227 84.5224 49.5539 85.1597 50.1936C85.587 50.6226 86.1268 51.3677 86.7716 52.4214C87.6637 53.8665 88.3385 54.8148 88.8033 55.2815C90.4301 56.9147 92.5069 57.6222 95.0259 57.3964C96.4353 57.2684 98.0922 56.5685 100.004 55.3116C101.293 56.1771 102.53 56.8018 103.715 57.133C105.05 57.5093 106.384 57.5394 107.733 57.2233C109.083 56.9072 110.193 56.3126 111.062 55.432C111.505 54.9879 112.134 54.1525 112.959 52.9182C114.016 51.315 114.668 50.3818 114.923 50.1259C115.538 49.5087 116.378 49.2001 117.435 49.2152C118.492 49.2227 119.849 49.7797 121.498 50.8785L122.075 50.299C120.958 48.6206 120.404 47.2508 120.411 46.1971C120.411 45.1434 120.733 44.2929 121.378 43.6532C121.806 43.2166 122.548 42.6823 123.597 42.035C125.029 41.1393 125.981 40.462 126.446 39.9953C128.073 38.3621 128.778 36.2773 128.56 33.7484H128.568ZM121.393 15.3689C120.171 15.9861 118.762 16.8592 117.165 17.9806C118.027 19.23 118.454 20.5095 118.454 21.8191C118.454 24.1372 117.69 25.9887 116.16 27.366C115.516 27.9681 113.806 29.0294 111.032 30.5271C111.437 31.498 111.639 32.4162 111.639 33.2893C111.639 35.8633 110.432 38.2191 108.018 40.3491C105.709 42.4038 103.31 43.4274 100.814 43.4274C99.0593 43.4274 98.1822 42.7575 98.1822 41.4254C98.1822 40.3566 99.3742 38.9341 101.766 37.1654C104.082 35.4494 105.784 34.6064 106.856 34.6365L107.059 34.8699L106.901 35.0806C105.342 35.6827 103.745 36.5257 102.096 37.6095C99.869 39.0846 98.752 40.3491 98.752 41.4028C98.752 41.8393 98.9619 42.2081 99.3742 42.4941C99.7266 42.7349 100.116 42.8554 100.559 42.8554C102.598 42.8554 104.787 41.5081 107.134 38.8062C109.458 36.1493 110.62 33.7409 110.62 31.5733C110.62 31.3249 110.575 31.0239 110.477 30.6927C109.953 31.0013 109.323 31.1593 108.573 31.1593C108.131 31.1593 107.704 31.069 107.291 30.8809C106.774 30.64 106.511 30.3164 106.511 29.91C106.511 29.1197 107.224 28.7283 108.641 28.7283C109.338 28.7283 110.028 29.1347 110.71 29.9476C112.479 28.8186 113.934 27.4413 115.088 25.793C116.415 23.9114 117.075 21.9997 117.075 20.0579C117.075 19.4859 116.962 18.8762 116.738 18.244C114.481 19.4558 112.269 21.503 110.095 24.3856C106.422 29.2401 104.112 32.2055 103.175 33.2893C100.454 36.4655 97.7848 38.8438 95.1683 40.4168C91.9521 42.3586 88.4584 43.3295 84.6874 43.3295C83.143 43.3295 81.6435 43.0887 80.1816 42.607C78.1724 41.9447 77.1603 41.0039 77.1603 39.7921C77.1603 39.3104 77.3027 38.8814 77.5876 38.4901C77.865 38.0987 78.2248 37.903 78.6522 37.903C79.0795 37.903 79.4319 38.046 79.7393 38.3395C80.0466 38.6331 80.2041 38.9943 80.2041 39.4309C80.2041 40.1684 79.7618 40.8007 78.8771 41.335C80.2866 42.2006 81.9209 42.6296 83.7877 42.6296C87.5438 42.6296 91.4123 40.9738 95.4007 37.6697C97.0801 36.2923 100.499 32.8001 105.664 27.2004C109.9 22.5943 113.476 19.4558 116.385 17.7849C114.893 16.3097 112.854 15.1883 110.268 14.4281C108.063 13.7809 105.754 13.4572 103.325 13.4572C99.0069 13.4572 95.1383 14.2776 91.7197 15.9259C87.8736 17.7548 84.9423 20.4794 82.948 24.092C82.2508 25.3489 81.8984 26.5758 81.8984 27.7875C81.8984 29.353 82.5657 30.5497 83.9077 31.3927C85.0322 32.1152 86.3892 32.4689 87.9711 32.4689C90.5426 32.4689 93.6689 31.4754 97.3275 29.496C101.473 27.2757 103.55 24.9576 103.55 22.5341C103.55 21.5331 103.078 20.7428 102.118 20.1482C101.316 19.6439 100.409 19.388 99.4042 19.388C94.5985 19.388 90.1303 22.647 86.0069 29.1724L85.8269 29.2552L85.542 29.0444L85.5795 28.8563C86.6666 26.2371 88.5709 23.9189 91.2923 21.9094C94.0812 19.8471 96.8102 18.816 99.4792 18.816C100.604 18.816 101.623 19.1171 102.516 19.7267C103.55 20.4267 104.067 21.3524 104.067 22.4889C104.067 25.4543 102.081 28.0284 98.1072 30.2035C94.711 32.0625 91.4573 32.9883 88.331 32.9883C86.5316 32.9883 84.9947 32.627 83.7202 31.912C82.1233 31.0088 81.3287 29.6917 81.3287 27.9456C81.3287 26.6209 81.726 25.2511 82.5132 23.8136C84.5224 20.1181 87.4988 17.3333 91.4273 15.4668C94.9209 13.7959 98.8719 12.9605 103.303 12.9605C105.807 12.9605 108.206 13.3067 110.5 13.9916C113.206 14.7969 115.328 15.9635 116.857 17.4914C118.139 16.6334 119.639 15.7377 121.341 14.7894L121.506 15.1055L121.401 15.3388L121.393 15.3689Z" fill="#EAD798"/>
<path d="M59.7371 116.629V118.646L60.4568 118.781V118.872H57.9902V118.781L58.71 118.646V112.821L57.9902 112.685V112.595H60.1569C60.6517 112.595 61.1015 112.647 61.4839 112.745C61.8737 112.851 62.2036 112.986 62.466 113.167C62.7284 113.347 62.9308 113.558 63.0733 113.806C63.2157 114.047 63.2832 114.318 63.2832 114.612C63.2832 114.905 63.2157 115.176 63.0733 115.417C62.9308 115.665 62.7284 115.876 62.466 116.049C62.2036 116.23 61.8737 116.365 61.4839 116.471C61.094 116.569 60.6517 116.621 60.1569 116.621H59.7371V116.629ZM59.7371 116.448H60.1569C60.7942 116.448 61.2815 116.305 61.6263 116.019C61.9712 115.733 62.1436 115.267 62.1436 114.612C62.1436 113.957 61.9712 113.49 61.6263 113.204C61.2815 112.918 60.7942 112.775 60.1569 112.775H59.7371V116.448Z" fill="#EAD798"/>
<path d="M66.9643 117.028H64.4977L63.898 118.548L64.6777 118.774V118.864H62.8708V118.774L63.6506 118.548L65.9971 112.459H66.1771L68.7036 118.639L69.4233 118.774V118.864H66.8968V118.774L67.6165 118.639L66.9568 117.028H66.9643ZM64.5577 116.862H66.8968L65.6898 113.897L64.5577 116.862Z" fill="#EAD798"/>
<path d="M71.9648 112.595C72.4821 112.595 72.9245 112.64 73.2993 112.723C73.6742 112.805 73.989 112.918 74.2364 113.061C74.4839 113.204 74.6713 113.37 74.7912 113.558C74.9112 113.746 74.9712 113.949 74.9712 114.16C74.9712 114.333 74.9337 114.484 74.8662 114.619C74.7987 114.755 74.7088 114.875 74.6038 114.981C74.4988 115.086 74.3714 115.169 74.2215 115.244C74.079 115.319 73.9366 115.372 73.7866 115.425C73.4418 115.538 73.0519 115.613 72.6171 115.643C72.9694 115.673 73.2918 115.733 73.5842 115.831C73.8316 115.914 74.064 116.034 74.2814 116.2C74.4988 116.358 74.6263 116.576 74.6638 116.855L74.9037 118.42C74.9187 118.533 74.9562 118.616 75.0161 118.661C75.0686 118.706 75.1361 118.729 75.2111 118.729C75.2486 118.729 75.2935 118.721 75.3385 118.699C75.3835 118.676 75.4285 118.653 75.466 118.623C75.5035 118.593 75.5409 118.556 75.5784 118.51L75.6984 118.601C75.6534 118.676 75.5784 118.751 75.496 118.804C75.421 118.849 75.331 118.894 75.2111 118.939C75.0911 118.985 74.9562 119 74.7987 119C74.5213 119 74.3039 118.939 74.1315 118.827C73.9591 118.714 73.8616 118.571 73.8391 118.42L73.5992 116.855C73.5692 116.651 73.5167 116.478 73.4418 116.343C73.3668 116.2 73.2693 116.087 73.1494 115.997C73.0219 115.906 72.8645 115.839 72.6771 115.801C72.4821 115.763 72.2497 115.741 71.9798 115.741H71.5V118.653L72.2197 118.789V118.879H69.7532V118.789L70.4729 118.653V112.828L69.7532 112.693V112.602H71.9798L71.9648 112.595ZM73.8316 114.168C73.8316 113.716 73.6742 113.377 73.3518 113.137C73.0294 112.896 72.5721 112.775 71.9648 112.775H71.485V115.553H71.9648C72.5646 115.553 73.0294 115.432 73.3518 115.191C73.6742 114.95 73.8316 114.612 73.8316 114.16V114.168Z" fill="#EAD798"/>
<path d="M78.105 116.539V118.646L78.8247 118.781V118.872H76.3582V118.781L77.0779 118.646V112.821L76.3582 112.685V112.595H78.8247V112.685L78.105 112.821V116.222L80.6915 112.911L79.9118 112.685V112.595H81.7186V112.685L80.9389 112.911L79.4245 114.853L81.846 118.638L82.5658 118.774V118.864H79.9793V118.774L80.699 118.638L78.7947 115.658L78.105 116.539Z" fill="#EAD798"/>
<path d="M87.4988 115.643V118.646L88.2185 118.781V118.872H85.752V118.781L86.4717 118.646V112.821L85.752 112.685V112.595H88.2185V112.685L87.4988 112.821V115.462H89.9728V112.821L89.2531 112.685V112.595H91.7197V112.685L90.9999 112.821V118.646L91.7197 118.781V118.872H89.2531V118.781L89.9728 118.646V115.643H87.4988Z" fill="#EAD798"/>
<path d="M98.3996 115.733C98.3996 116.283 98.3171 116.765 98.1522 117.171C97.9872 117.577 97.7698 117.924 97.4999 118.195C97.23 118.466 96.9301 118.669 96.5928 118.804C96.2554 118.94 95.9105 119.007 95.5657 119.007C95.2208 119.007 94.8834 118.94 94.5461 118.804C94.2087 118.669 93.9013 118.466 93.6389 118.195C93.369 117.924 93.1516 117.585 92.9867 117.171C92.8217 116.765 92.7393 116.283 92.7393 115.733C92.7393 115.184 92.8217 114.702 92.9867 114.296C93.1516 113.882 93.369 113.543 93.6389 113.272C93.9088 113.001 94.2087 112.798 94.5461 112.663C94.8834 112.527 95.2208 112.459 95.5657 112.459C95.9105 112.459 96.2554 112.527 96.5928 112.663C96.9301 112.798 97.23 113.001 97.4999 113.272C97.7698 113.543 97.9872 113.882 98.1522 114.296C98.3171 114.702 98.3996 115.184 98.3996 115.733ZM97.2525 115.733C97.2525 115.116 97.2 114.612 97.1026 114.206C97.0051 113.807 96.8702 113.483 96.7052 113.242C96.5403 113.001 96.3604 112.836 96.1579 112.738C95.9555 112.64 95.7606 112.595 95.5657 112.595C95.3707 112.595 95.1758 112.64 94.9734 112.738C94.771 112.836 94.591 113.001 94.4261 113.242C94.2612 113.483 94.1262 113.807 94.0288 114.206C93.9313 114.612 93.8788 115.116 93.8788 115.733C93.8788 116.351 93.9313 116.855 94.0288 117.261C94.1262 117.668 94.2612 117.984 94.4261 118.225C94.591 118.466 94.771 118.631 94.9734 118.729C95.1758 118.827 95.3707 118.872 95.5657 118.872C95.7606 118.872 95.9555 118.827 96.1579 118.729C96.3604 118.631 96.5403 118.466 96.7052 118.225C96.8702 117.984 97.0051 117.668 97.1026 117.261C97.2 116.855 97.2525 116.351 97.2525 115.733Z" fill="#EAD798"/>
<path d="M102.253 118.639L102.973 118.774V118.865H100.506V118.774L101.226 118.639V112.776H99.9591C99.9591 113.024 99.8916 113.257 99.7566 113.476C99.6217 113.694 99.4492 113.874 99.2393 114.033H99.1194C99.1269 113.957 99.1344 113.875 99.1419 113.792C99.1494 113.724 99.1569 113.641 99.1644 113.566C99.1719 113.483 99.1794 113.4 99.1794 113.318C99.1794 113.205 99.1794 113.107 99.1644 113.016C99.1644 112.926 99.1494 112.851 99.1419 112.791C99.1344 112.715 99.1269 112.655 99.1194 112.603H104.36C104.345 112.655 104.33 112.723 104.322 112.791C104.315 112.858 104.307 112.934 104.307 113.016C104.307 113.099 104.307 113.205 104.307 113.318C104.307 113.4 104.307 113.483 104.307 113.566C104.307 113.649 104.315 113.724 104.322 113.792C104.33 113.875 104.345 113.957 104.36 114.033H104.24C104.03 113.874 103.858 113.694 103.723 113.476C103.588 113.265 103.52 113.032 103.52 112.776H102.253V118.639Z" fill="#EAD798"/>
<path d="M109.42 118.684C109.42 118.428 109.488 118.202 109.623 117.984C109.758 117.765 109.93 117.585 110.14 117.427H110.26C110.245 117.502 110.23 117.585 110.223 117.667C110.215 117.743 110.208 117.818 110.208 117.901C110.208 117.984 110.208 118.066 110.208 118.142C110.208 118.254 110.208 118.352 110.208 118.443C110.208 118.533 110.215 118.608 110.223 118.668C110.23 118.736 110.245 118.804 110.26 118.857H105.26V118.766L105.979 118.631V112.805L105.26 112.67V112.58H110.14C110.125 112.632 110.11 112.7 110.103 112.768C110.095 112.835 110.088 112.911 110.088 112.994C110.088 113.076 110.088 113.182 110.088 113.295C110.088 113.377 110.088 113.46 110.088 113.543C110.088 113.626 110.095 113.701 110.103 113.769C110.11 113.852 110.125 113.934 110.14 114.01H110.02C109.81 113.852 109.638 113.671 109.503 113.453C109.368 113.242 109.3 113.009 109.3 112.753H107.014V115.44H108.161L108.701 114.634H108.821V116.426H108.701L108.161 115.62H107.014V118.668H109.42V118.684Z" fill="#EAD798"/>
<path d="M113.094 118.684H115.261C115.261 118.428 115.328 118.202 115.463 117.984C115.598 117.765 115.77 117.585 115.98 117.427H116.1C116.085 117.502 116.07 117.585 116.063 117.667C116.055 117.743 116.048 117.818 116.04 117.901C116.04 117.984 116.04 118.066 116.04 118.142C116.04 118.254 116.04 118.352 116.04 118.443C116.04 118.533 116.048 118.608 116.063 118.668C116.063 118.736 116.085 118.804 116.1 118.857H111.34V118.766L112.059 118.631V112.805L111.34 112.67V112.58H113.806V112.67L113.086 112.805V118.676L113.094 118.684Z" fill="#EAD798"/>
<path d="M122.128 112.595C122.638 112.595 123.088 112.64 123.463 112.723C123.837 112.805 124.152 112.918 124.4 113.061C124.647 113.204 124.835 113.37 124.954 113.558C125.074 113.746 125.134 113.949 125.134 114.16C125.134 114.333 125.097 114.484 125.029 114.619C124.962 114.755 124.872 114.875 124.767 114.981C124.662 115.086 124.535 115.169 124.392 115.244C124.25 115.319 124.1 115.372 123.957 115.425C123.613 115.538 123.223 115.613 122.788 115.643C123.14 115.673 123.463 115.733 123.755 115.831C124.002 115.914 124.235 116.034 124.452 116.2C124.67 116.358 124.797 116.576 124.835 116.855L125.074 118.42C125.089 118.533 125.127 118.616 125.179 118.661C125.239 118.706 125.299 118.729 125.374 118.729C125.412 118.729 125.457 118.721 125.502 118.699C125.547 118.676 125.584 118.653 125.629 118.623C125.667 118.593 125.704 118.556 125.734 118.51L125.854 118.601C125.809 118.676 125.734 118.751 125.652 118.804C125.584 118.849 125.487 118.894 125.367 118.939C125.247 118.985 125.112 119 124.954 119C124.685 119 124.46 118.939 124.287 118.827C124.115 118.714 124.017 118.571 123.995 118.42L123.755 116.855C123.725 116.651 123.672 116.478 123.598 116.343C123.523 116.2 123.425 116.087 123.305 115.997C123.178 115.906 123.02 115.839 122.833 115.801C122.638 115.763 122.405 115.741 122.136 115.741H121.656V118.653L122.375 118.789V118.879H119.909V118.789L120.636 118.653V112.828L119.909 112.693V112.602H122.136L122.128 112.595ZM123.995 114.168C123.995 113.716 123.837 113.377 123.515 113.137C123.193 112.896 122.735 112.775 122.128 112.775H121.648V115.553H122.128C122.728 115.553 123.193 115.432 123.515 115.191C123.837 114.95 123.995 114.612 123.995 114.16V114.168Z" fill="#EAD798"/>
<path d="M128.268 118.639L128.988 118.774V118.864H126.521V118.774L127.241 118.639V112.813L126.521 112.678V112.587H128.988V112.678L128.268 112.813V118.639Z" fill="#EAD798"/>
<path d="M134.288 115.997H133.081V115.816H135.308V116.486C135.308 116.892 135.233 117.254 135.098 117.562C134.956 117.871 134.776 118.134 134.543 118.345C134.311 118.556 134.049 118.721 133.756 118.827C133.456 118.94 133.156 118.992 132.842 118.992C132.512 118.992 132.182 118.925 131.852 118.789C131.522 118.654 131.23 118.45 130.96 118.179C130.697 117.909 130.48 117.57 130.315 117.156C130.15 116.749 130.068 116.268 130.068 115.718C130.068 115.169 130.15 114.687 130.315 114.281C130.48 113.867 130.697 113.528 130.967 113.257C131.237 112.986 131.537 112.783 131.874 112.648C132.212 112.512 132.557 112.444 132.902 112.444C133.096 112.444 133.269 112.467 133.426 112.512C133.584 112.557 133.719 112.61 133.831 112.663C133.959 112.73 134.071 112.806 134.169 112.888C134.236 112.798 134.318 112.715 134.431 112.64C134.536 112.565 134.656 112.512 134.776 112.49H134.956C134.941 112.58 134.926 112.67 134.918 112.76C134.911 112.843 134.903 112.934 134.903 113.024C134.903 113.114 134.903 113.205 134.903 113.295C134.903 113.393 134.903 113.498 134.903 113.596C134.903 113.694 134.911 113.784 134.918 113.867C134.926 113.965 134.941 114.055 134.956 114.145H134.776C134.588 113.649 134.341 113.272 134.034 113.009C133.726 112.753 133.389 112.617 133.029 112.617C132.804 112.617 132.579 112.663 132.362 112.76C132.144 112.858 131.957 113.024 131.784 113.257C131.62 113.491 131.477 113.807 131.372 114.206C131.267 114.604 131.215 115.101 131.215 115.703C131.215 116.305 131.267 116.825 131.365 117.231C131.462 117.638 131.597 117.954 131.754 118.195C131.912 118.435 132.092 118.601 132.279 118.699C132.467 118.797 132.654 118.842 132.842 118.842C133.029 118.842 133.194 118.804 133.374 118.729C133.554 118.654 133.704 118.526 133.839 118.345C133.974 118.164 134.079 117.916 134.161 117.615C134.244 117.314 134.288 116.93 134.288 116.471V115.974V115.997Z" fill="#EAD798"/>
<path d="M139.529 117.028H137.062L136.463 118.548L137.242 118.774V118.864H135.436V118.774L136.223 118.548L138.569 112.459H138.749L141.276 118.639L141.996 118.774V118.864H139.469V118.774L140.189 118.639L139.529 117.028ZM137.122 116.862H139.462L138.254 113.897L137.122 116.862Z" fill="#EAD798"/>
</g>
<defs>
<clipPath id="clip0_99_1431">
<rect width="182" height="119" fill="white"/>
</clipPath>
</defs>
</svg>
