<svg width="14" height="14" viewBox="0 0 14 14" fill="none" xmlns="http://www.w3.org/2000/svg">
<path d="M5.25139 9.43273L3.22722 7.40856C3.11815 7.29949 2.97022 7.23822 2.81597 7.23822C2.66172 7.23822 2.51379 7.29949 2.40472 7.40856C2.29565 7.51763 2.23438 7.66556 2.23438 7.81981C2.23438 7.89619 2.24942 7.97182 2.27865 8.04238C2.30787 8.11294 2.35071 8.17706 2.40472 8.23106L4.84305 10.6694C5.07055 10.8969 5.43805 10.8969 5.66555 10.6694L11.8372 4.49773C11.9463 4.38866 12.0076 4.24073 12.0076 4.08648C12.0076 3.93223 11.9463 3.7843 11.8372 3.67523C11.7281 3.56616 11.5802 3.50488 11.426 3.50488C11.2717 3.50488 11.1238 3.56616 11.0147 3.67523L5.25139 9.43273Z" fill="black"/>
</svg>
