<svg aria-hidden="true" xmlns="http://www.w3.org/2000/svg" xmlns:xlink="http://www.w3.org/1999/xlink"><symbol viewBox="0 0 18 18" id="email" xmlns="http://www.w3.org/2000/svg">
<g clip-path="url(#aclip0_145_811)">
<path d="M14.25 0.75H3.75C2.7558 0.751191 1.80267 1.14666 1.09966 1.84966C0.396661 2.55267 0.00119089 3.5058 0 4.5L0 13.5C0.00119089 14.4942 0.396661 15.4473 1.09966 16.1503C1.80267 16.8533 2.7558 17.2488 3.75 17.25H14.25C15.2442 17.2488 16.1973 16.8533 16.9003 16.1503C17.6033 15.4473 17.9988 14.4942 18 13.5V4.5C17.9988 3.5058 17.6033 2.55267 16.9003 1.84966C16.1973 1.14666 15.2442 0.751191 14.25 0.75ZM3.75 2.25H14.25C14.6991 2.25088 15.1376 2.38614 15.5092 2.63835C15.8808 2.89057 16.1684 3.24821 16.335 3.66525L10.5915 9.4095C10.1688 9.83049 9.59656 10.0669 9 10.0669C8.40344 10.0669 7.83118 9.83049 7.4085 9.4095L1.665 3.66525C1.83161 3.24821 2.11921 2.89057 2.49079 2.63835C2.86236 2.38614 3.30091 2.25088 3.75 2.25ZM14.25 15.75H3.75C3.15326 15.75 2.58097 15.5129 2.15901 15.091C1.73705 14.669 1.5 14.0967 1.5 13.5V5.625L6.348 10.47C7.05197 11.1722 8.00569 11.5665 9 11.5665C9.99431 11.5665 10.948 11.1722 11.652 10.47L16.5 5.625V13.5C16.5 14.0967 16.2629 14.669 15.841 15.091C15.419 15.5129 14.8467 15.75 14.25 15.75Z"/>
</g>
<defs>
<clipPath id="aclip0_145_811">
<rect width="18" height="18"/>
</clipPath>
</defs>
</symbol><symbol viewBox="0 0 38 39" id="facebook" xmlns="http://www.w3.org/2000/svg">
<g clip-path="url(#bclip0_123_82)">
<path d="M19 38.6426C29.4934 38.6426 38 30.136 38 19.6426C38 9.14917 29.4934 0.642578 19 0.642578C8.50659 0.642578 0 9.14917 0 19.6426C0 30.136 8.50659 38.6426 19 38.6426Z"/>
<path d="M23.8149 17.8451L23.4999 20.4901C23.4863 20.6129 23.4277 20.7264 23.3354 20.8086C23.243 20.8908 23.1235 20.9358 22.9999 20.9351H20.2499V28.7851C20.2506 28.8788 20.2142 28.969 20.1486 29.036C20.083 29.1029 19.9936 29.1413 19.8999 29.1426H17.0974C17.0508 29.1419 17.0048 29.1321 16.962 29.1137C16.9191 29.0952 16.8804 29.0685 16.8479 29.0351C16.8154 29.0016 16.7898 28.9621 16.7725 28.9188C16.7553 28.8755 16.7468 28.8292 16.7474 28.7826L16.7624 20.9351H14.6799C14.5473 20.9351 14.4201 20.8824 14.3264 20.7886C14.2326 20.6949 14.1799 20.5677 14.1799 20.4351V17.7901C14.1799 17.6575 14.2326 17.5303 14.3264 17.4365C14.4201 17.3428 14.5473 17.2901 14.6799 17.2901H16.7499V14.7251C16.7499 11.7576 18.5149 10.1426 21.0999 10.1426H23.2174C23.35 10.1426 23.4772 10.1953 23.571 10.289C23.6648 10.3828 23.7174 10.51 23.7174 10.6426V12.8701C23.7174 13.0027 23.6648 13.1299 23.571 13.2236C23.4772 13.3174 23.35 13.3701 23.2174 13.3701H21.9199C20.5149 13.3926 20.2499 14.0651 20.2499 15.0701V17.2826H23.3274C23.3976 17.2838 23.4668 17.2998 23.5304 17.3295C23.5941 17.3592 23.6507 17.402 23.6967 17.455C23.7427 17.5081 23.777 17.5703 23.7974 17.6375C23.8177 17.7047 23.8237 17.7754 23.8149 17.8451Z"/>
</g>
<defs>
<clipPath id="bclip0_123_82">
<rect width="38" height="38" transform="translate(0 0.642578)"/>
</clipPath>
</defs>
</symbol><symbol viewBox="0 0 38 39" id="instagram" xmlns="http://www.w3.org/2000/svg">
<g clip-path="url(#cclip0_123_87)">
<path d="M19 38.6426C29.4934 38.6426 38 30.136 38 19.6426C38 9.14917 29.4934 0.642578 19 0.642578C8.50659 0.642578 0 9.14917 0 19.6426C0 30.136 8.50659 38.6426 19 38.6426Z"/>
<path d="M22.84 10.1426H15.16C13.6595 10.1446 12.221 10.7415 11.16 11.8025C10.0989 12.8636 9.50198 14.3021 9.5 15.8026V23.4826C9.50198 24.9831 10.0989 26.4216 11.16 27.4826C12.221 28.5436 13.6595 29.1406 15.16 29.1426H22.84C24.3407 29.1413 25.7796 28.5445 26.8408 27.4833C27.9019 26.4222 28.4987 24.9833 28.5 23.4826V15.8026C28.498 14.3021 27.9011 12.8636 26.84 11.8025C25.779 10.7415 24.3405 10.1446 22.84 10.1426ZM26.59 23.4826C26.59 24.4771 26.1949 25.431 25.4916 26.1342C24.7884 26.8375 23.8346 27.2326 22.84 27.2326H15.16C14.1654 27.2326 13.2116 26.8375 12.5083 26.1342C11.8051 25.431 11.41 24.4771 11.41 23.4826V15.8026C11.41 14.808 11.8051 13.8542 12.5083 13.1509C13.2116 12.4477 14.1654 12.0526 15.16 12.0526H22.84C23.8346 12.0526 24.7884 12.4477 25.4916 13.1509C26.1949 13.8542 26.59 14.808 26.59 15.8026V23.4826Z"/>
<path d="M19 14.7305C18.0277 14.73 17.0771 15.0179 16.2685 15.5578C15.4598 16.0976 14.8294 16.8652 14.4571 17.7634C14.0848 18.6616 13.9873 19.6501 14.1768 20.6037C14.3664 21.5574 14.8346 22.4334 15.5221 23.1209C16.2096 23.8084 17.0856 24.2766 18.0393 24.4662C18.9929 24.6557 19.9814 24.5582 20.8796 24.1859C21.7778 23.8135 22.5454 23.1832 23.0852 22.3745C23.6251 21.5659 23.913 20.6153 23.9125 19.643C23.9112 18.3405 23.3932 17.0918 22.4722 16.1708C21.5512 15.2498 20.3025 14.7318 19 14.7305ZM19 22.643C18.4067 22.643 17.8267 22.467 17.3333 22.1374C16.84 21.8077 16.4554 21.3392 16.2284 20.791C16.0013 20.2428 15.9419 19.6396 16.0577 19.0577C16.1734 18.4758 16.4591 17.9412 16.8787 17.5216C17.2983 17.1021 17.8328 16.8164 18.4147 16.7006C18.9967 16.5849 19.5999 16.6443 20.1481 16.8713C20.6962 17.0984 21.1648 17.4829 21.4944 17.9763C21.8241 18.4696 22 19.0496 22 19.643C22 20.4386 21.684 21.2017 21.1213 21.7643C20.5587 22.3269 19.7957 22.643 19 22.643Z"/>
<path d="M23.9425 15.9446C24.6136 15.9446 25.1575 15.4007 25.1575 14.7296C25.1575 14.0586 24.6136 13.5146 23.9425 13.5146C23.2715 13.5146 22.7275 14.0586 22.7275 14.7296C22.7275 15.4007 23.2715 15.9446 23.9425 15.9446Z"/>
</g>
<defs>
<clipPath id="cclip0_123_87">
<rect width="38" height="38" transform="translate(0 0.642578)"/>
</clipPath>
</defs>
</symbol><symbol viewBox="0 0 18 18" id="phone" xmlns="http://www.w3.org/2000/svg">
<g clip-path="url(#dclip0_145_813)">
<path d="M9.74999 0.750221C9.74999 0.551309 9.82901 0.360543 9.96966 0.219891C10.1103 0.0792388 10.3011 0.000221163 10.5 0.000221163C12.4884 0.00240486 14.3948 0.793283 15.8009 2.19933C17.2069 3.60538 17.9978 5.51177 18 7.50022C18 7.69913 17.921 7.8899 17.7803 8.03055C17.6397 8.1712 17.4489 8.25022 17.25 8.25022C17.0511 8.25022 16.8603 8.1712 16.7197 8.03055C16.579 7.8899 16.5 7.69913 16.5 7.50022C16.4982 5.90947 15.8655 4.38439 14.7407 3.25955C13.6158 2.13472 12.0907 1.50201 10.5 1.50022C10.3011 1.50022 10.1103 1.4212 9.96966 1.28055C9.82901 1.1399 9.74999 0.949134 9.74999 0.750221ZM10.5 4.50022C11.2956 4.50022 12.0587 4.81629 12.6213 5.3789C13.1839 5.94151 13.5 6.70457 13.5 7.50022C13.5 7.69913 13.579 7.8899 13.7197 8.03055C13.8603 8.1712 14.0511 8.25022 14.25 8.25022C14.4489 8.25022 14.6397 8.1712 14.7803 8.03055C14.921 7.8899 15 7.69913 15 7.50022C14.9988 6.30711 14.5243 5.16321 13.6807 4.31956C12.837 3.4759 11.6931 3.00141 10.5 3.00022C10.3011 3.00022 10.1103 3.07924 9.96966 3.21989C9.82901 3.36054 9.74999 3.55131 9.74999 3.75022C9.74999 3.94913 9.82901 4.1399 9.96966 4.28055C10.1103 4.4212 10.3011 4.50022 10.5 4.50022ZM17.3197 12.5545C17.7544 12.9903 17.9984 13.5807 17.9984 14.1962C17.9984 14.8117 17.7544 15.4021 17.3197 15.838L16.6372 16.6247C10.4947 22.5055 -4.45276 7.56172 1.33724 1.39972L2.19974 0.649721C2.63607 0.227229 3.22119 -0.00649203 3.82852 -0.000877705C4.43585 0.00473662 5.01655 0.249235 5.44499 0.679721C5.46824 0.702971 6.85799 2.50822 6.85799 2.50822C7.27036 2.94144 7.49992 3.51692 7.49894 4.11502C7.49796 4.71313 7.26653 5.28785 6.85274 5.71972L5.98424 6.81172C6.46488 7.97956 7.17154 9.04091 8.06362 9.93479C8.9557 10.8287 10.0156 11.5375 11.1825 12.0205L12.2812 11.1467C12.7132 10.7333 13.2878 10.5021 13.8857 10.5013C14.4836 10.5004 15.0589 10.73 15.492 11.1422C15.492 11.1422 17.2965 12.5312 17.3197 12.5545ZM16.2877 13.645C16.2877 13.645 14.493 12.2642 14.4697 12.241C14.3152 12.0878 14.1065 12.0018 13.8889 12.0018C13.6713 12.0018 13.4625 12.0878 13.308 12.241C13.2877 12.262 11.775 13.4672 11.775 13.4672C11.673 13.5484 11.5517 13.6016 11.423 13.6215C11.2942 13.6415 11.1625 13.6276 11.0407 13.5812C9.52908 13.0184 8.15604 12.1373 7.01462 10.9975C5.87319 9.85779 4.99004 8.48605 4.42499 6.97522C4.37489 6.85181 4.35855 6.71729 4.37767 6.58548C4.39678 6.45366 4.45065 6.32932 4.53374 6.22522C4.53374 6.22522 5.73899 4.71172 5.75924 4.69222C5.91244 4.53771 5.9984 4.32893 5.9984 4.11135C5.9984 3.89376 5.91244 3.68498 5.75924 3.53047C5.73599 3.50797 4.35524 1.71172 4.35524 1.71172C4.19841 1.5711 3.99374 1.49579 3.78318 1.50123C3.57261 1.50667 3.3721 1.59244 3.22274 1.74097L2.36024 2.49097C-1.87126 7.57897 11.082 19.8137 15.5407 15.6002L16.224 14.8127C16.3841 14.6644 16.4803 14.4597 16.4922 14.2417C16.5041 14.0238 16.4308 13.8098 16.2877 13.645Z"/>
</g>
<defs>
<clipPath id="dclip0_145_813">
<rect width="18" height="18"/>
</clipPath>
</defs>
</symbol><symbol viewBox="0 0 56 36" id="swiper-arrow" xmlns="http://www.w3.org/2000/svg">
<path d="M3.64926 17.1249L56 17.1249L56 18.8751L3.64926 18.8751L21.6094 34.6459L20.4539 35.962L7.85141e-07 18L20.4539 0.038085L21.6094 1.3542L3.64926 17.1249Z"/>
</symbol></svg>