<svg width="38" height="39" viewBox="0 0 38 39" fill="none" xmlns="http://www.w3.org/2000/svg">
<g clip-path="url(#clip0_123_87)">
<path d="M19 38.6426C29.4934 38.6426 38 30.136 38 19.6426C38 9.14917 29.4934 0.642578 19 0.642578C8.50659 0.642578 0 9.14917 0 19.6426C0 30.136 8.50659 38.6426 19 38.6426Z" fill="#EAD798"/>
<path d="M22.84 10.1426H15.16C13.6595 10.1446 12.221 10.7415 11.16 11.8025C10.0989 12.8636 9.50198 14.3021 9.5 15.8026V23.4826C9.50198 24.9831 10.0989 26.4216 11.16 27.4826C12.221 28.5436 13.6595 29.1406 15.16 29.1426H22.84C24.3407 29.1413 25.7796 28.5445 26.8408 27.4833C27.9019 26.4222 28.4987 24.9833 28.5 23.4826V15.8026C28.498 14.3021 27.9011 12.8636 26.84 11.8025C25.779 10.7415 24.3405 10.1446 22.84 10.1426ZM26.59 23.4826C26.59 24.4771 26.1949 25.431 25.4916 26.1342C24.7884 26.8375 23.8346 27.2326 22.84 27.2326H15.16C14.1654 27.2326 13.2116 26.8375 12.5083 26.1342C11.8051 25.431 11.41 24.4771 11.41 23.4826V15.8026C11.41 14.808 11.8051 13.8542 12.5083 13.1509C13.2116 12.4477 14.1654 12.0526 15.16 12.0526H22.84C23.8346 12.0526 24.7884 12.4477 25.4916 13.1509C26.1949 13.8542 26.59 14.808 26.59 15.8026V23.4826Z" fill="#61574A"/>
<path d="M19 14.7305C18.0277 14.73 17.0771 15.0179 16.2685 15.5578C15.4598 16.0976 14.8294 16.8652 14.4571 17.7634C14.0848 18.6616 13.9873 19.6501 14.1768 20.6037C14.3664 21.5574 14.8346 22.4334 15.5221 23.1209C16.2096 23.8084 17.0856 24.2766 18.0393 24.4662C18.9929 24.6557 19.9814 24.5582 20.8796 24.1859C21.7778 23.8135 22.5454 23.1832 23.0852 22.3745C23.6251 21.5659 23.913 20.6153 23.9125 19.643C23.9112 18.3405 23.3932 17.0918 22.4722 16.1708C21.5512 15.2498 20.3025 14.7318 19 14.7305ZM19 22.643C18.4067 22.643 17.8267 22.467 17.3333 22.1374C16.84 21.8077 16.4554 21.3392 16.2284 20.791C16.0013 20.2428 15.9419 19.6396 16.0577 19.0577C16.1734 18.4758 16.4591 17.9412 16.8787 17.5216C17.2983 17.1021 17.8328 16.8164 18.4147 16.7006C18.9967 16.5849 19.5999 16.6443 20.1481 16.8713C20.6962 17.0984 21.1648 17.4829 21.4944 17.9763C21.8241 18.4696 22 19.0496 22 19.643C22 20.4386 21.684 21.2017 21.1213 21.7643C20.5587 22.3269 19.7957 22.643 19 22.643Z" fill="#61574A"/>
<path d="M23.9425 15.9446C24.6136 15.9446 25.1575 15.4007 25.1575 14.7296C25.1575 14.0586 24.6136 13.5146 23.9425 13.5146C23.2715 13.5146 22.7275 14.0586 22.7275 14.7296C22.7275 15.4007 23.2715 15.9446 23.9425 15.9446Z" fill="#61574A"/>
</g>
<defs>
<clipPath id="clip0_123_87">
<rect width="38" height="38" fill="white" transform="translate(0 0.642578)"/>
</clipPath>
</defs>
</svg>
