<svg width="24" height="25" viewBox="0 0 24 25" fill="none" xmlns="http://www.w3.org/2000/svg">
<g clip-path="url(#clip0_99_1127)">
<path d="M13 1.37489C13 1.10967 13.1053 0.855318 13.2929 0.667781C13.4804 0.480245 13.7348 0.374888 14 0.374888C16.6513 0.3778 19.1931 1.4323 21.0678 3.30704C22.9426 5.18177 23.9971 7.72362 24 10.3749C24 10.6401 23.8946 10.8945 23.7071 11.082C23.5196 11.2695 23.2652 11.3749 23 11.3749C22.7348 11.3749 22.4804 11.2695 22.2929 11.082C22.1053 10.8945 22 10.6401 22 10.3749C21.9976 8.25389 21.154 6.22044 19.6542 4.72066C18.1544 3.22089 16.121 2.37727 14 2.37489C13.7348 2.37489 13.4804 2.26953 13.2929 2.082C13.1053 1.89446 13 1.6401 13 1.37489ZM14 6.37489C15.0609 6.37489 16.0783 6.79632 16.8284 7.54646C17.5786 8.29661 18 9.31402 18 10.3749C18 10.6401 18.1053 10.8945 18.2929 11.082C18.4804 11.2695 18.7348 11.3749 19 11.3749C19.2652 11.3749 19.5196 11.2695 19.7071 11.082C19.8946 10.8945 20 10.6401 20 10.3749C19.9984 8.78408 19.3657 7.25888 18.2409 6.134C17.116 5.00913 15.5908 4.37648 14 4.37489C13.7348 4.37489 13.4804 4.48025 13.2929 4.66778C13.1053 4.85532 13 5.10967 13 5.37489C13 5.64011 13.1053 5.89446 13.2929 6.082C13.4804 6.26953 13.7348 6.37489 14 6.37489ZM23.093 17.1139C23.6725 17.695 23.9979 18.4822 23.9979 19.3029C23.9979 20.1236 23.6725 20.9108 23.093 21.4919L22.183 22.5409C13.993 30.3819 -5.93701 10.4569 1.78299 2.24089L2.93299 1.24089C3.51475 0.677565 4.29492 0.365937 5.10469 0.373423C5.91446 0.380909 6.68873 0.706906 7.25999 1.28089C7.29099 1.31189 9.14399 3.71889 9.14399 3.71889C9.69382 4.29652 9.99989 5.06382 9.99859 5.86129C9.99728 6.65877 9.6887 7.42506 9.13699 8.00089L7.97899 9.45689C8.61983 11.014 9.56205 12.4291 10.7515 13.621C11.9409 14.8128 13.3542 15.7579 14.91 16.4019L16.375 15.2369C16.9509 14.6856 17.717 14.3774 18.5143 14.3763C19.3115 14.3751 20.0785 14.6812 20.656 15.2309C20.656 15.2309 23.062 17.0829 23.093 17.1139ZM21.717 18.5679C21.717 18.5679 19.324 16.7269 19.293 16.6959C19.087 16.4916 18.8086 16.377 18.5185 16.377C18.2284 16.377 17.95 16.4916 17.744 16.6959C17.717 16.7239 15.7 18.3309 15.7 18.3309C15.5641 18.4391 15.4023 18.51 15.2306 18.5366C15.059 18.5633 14.8833 18.5448 14.721 18.4829C12.7054 17.7325 10.8747 16.5576 9.35282 15.038C7.83092 13.5183 6.65339 11.6893 5.89999 9.67489C5.83318 9.51034 5.81141 9.33098 5.83689 9.15523C5.86237 8.97948 5.9342 8.81368 6.04499 8.67489C6.04499 8.67489 7.65199 6.65689 7.67899 6.63089C7.88325 6.42487 7.99786 6.1465 7.99786 5.85639C7.99786 5.56627 7.88325 5.2879 7.67899 5.08189C7.64799 5.05189 5.80699 2.65689 5.80699 2.65689C5.59789 2.4694 5.32499 2.36898 5.04423 2.37624C4.76348 2.38349 4.49613 2.49785 4.29699 2.69589L3.14699 3.69589C-2.49501 10.4799 14.776 26.7929 20.721 21.1749L21.632 20.1249C21.8455 19.9272 21.9737 19.6541 21.9896 19.3636C22.0054 19.073 21.9077 18.7877 21.717 18.5679Z" fill="#EAD798"/>
</g>
<defs>
<clipPath id="clip0_99_1127">
<rect width="24" height="24" fill="white" transform="translate(0 0.375)"/>
</clipPath>
</defs>
</svg>
