<svg width="24" height="25" viewBox="0 0 24 25" fill="none" xmlns="http://www.w3.org/2000/svg">
<g clip-path="url(#clip0_99_1256)">
<path d="M12 0.589844C5.383 0.589844 0 5.97284 0 12.5898C0 19.2068 5.383 24.5898 12 24.5898C18.617 24.5898 24 19.2068 24 12.5898C24 5.97284 18.617 0.589844 12 0.589844ZM8 21.7538V21.5898C8 19.3838 9.794 17.5898 12 17.5898C14.206 17.5898 16 19.3838 16 21.5898V21.7538C14.774 22.2908 13.422 22.5898 12 22.5898C10.578 22.5898 9.226 22.2908 8 21.7538ZM17.925 20.6408C17.469 17.7818 14.986 15.5898 12 15.5898C9.014 15.5898 6.532 17.7818 6.075 20.6408C3.605 18.8178 2 15.8878 2 12.5898C2 7.07584 6.486 2.58984 12 2.58984C17.514 2.58984 22 7.07584 22 12.5898C22 15.8878 20.395 18.8178 17.925 20.6408ZM12 5.58984C9.794 5.58984 8 7.38384 8 9.58984C8 11.7958 9.794 13.5898 12 13.5898C14.206 13.5898 16 11.7958 16 9.58984C16 7.38384 14.206 5.58984 12 5.58984ZM12 11.5898C10.897 11.5898 10 10.6928 10 9.58984C10 8.48684 10.897 7.58984 12 7.58984C13.103 7.58984 14 8.48684 14 9.58984C14 10.6928 13.103 11.5898 12 11.5898Z" fill="#EAD798"/>
</g>
<defs>
<clipPath id="clip0_99_1256">
<rect width="24" height="24" fill="white" transform="translate(0 0.589844)"/>
</clipPath>
</defs>
</svg>
