<svg width="60" height="61" viewBox="0 0 60 61" fill="none" xmlns="http://www.w3.org/2000/svg">
<g clip-path="url(#clip0_99_1282)">
<path d="M58.1095 14.3866H50.2307C50.4861 10.3281 49.4559 5.05433 46.8537 2.35996C45.539 0.998709 43.9018 0.364139 42.1169 0.528318C38.4219 0.861717 33.7265 5.60113 31.0382 8.68281C30.6995 8.63265 30.3528 8.60652 30.0001 8.60652C29.6463 8.60652 29.2989 8.63277 28.9594 8.68316C26.275 5.60172 21.5847 0.862303 17.884 0.528318C16.0988 0.365779 14.4609 0.998826 13.1463 2.35996C10.5441 5.05445 9.51381 10.3281 9.76928 14.3866H1.89041C1.37303 14.3866 0.953613 14.806 0.953613 15.3234V28.5576C0.953613 29.075 1.37303 29.4944 1.89041 29.4944H4.98639V59.5637C4.98639 60.0811 5.4058 60.5005 5.92318 60.5005H54.0734C54.5908 60.5005 55.0102 60.0811 55.0102 59.5637V29.4944H58.1094C58.6267 29.4944 59.0462 29.075 59.0462 28.5576V15.3234C59.0463 14.806 58.6269 14.3866 58.1095 14.3866ZM22.5325 27.6207V16.2602H37.4675V27.6207H22.5325ZM34.8531 29.4944V58.627H25.1469V29.4944H34.8531ZM36.8536 14.3866C36.7444 13.7397 36.5478 13.125 36.2754 12.5542C38.1012 12.2923 39.933 12.1422 41.7379 12.1109C43.8774 12.0778 45.49 12.8416 46.5418 14.3866H36.8536ZM42.2862 2.39418C43.52 2.28144 44.5735 2.69594 45.506 3.66144C47.5686 5.79719 48.5163 10.2044 48.3858 13.802C47.0315 11.4882 44.7631 10.2362 41.8706 10.2362C41.8162 10.2362 41.7613 10.2367 41.7065 10.2377C39.5267 10.2753 37.3113 10.4782 35.1125 10.8372C34.519 10.1946 33.806 9.66578 33.0077 9.28469C36.7313 5.13883 40.1511 2.58683 42.2862 2.39418ZM31.1709 10.6156C31.1847 10.619 31.1985 10.6223 31.2125 10.625C32.3115 10.8918 33.269 11.5139 33.9568 12.3666C33.9828 12.4055 34.0117 12.442 34.0428 12.4762C34.4667 13.0323 34.7787 13.6796 34.9444 14.3866H25.0552C25.2209 13.6797 25.5329 13.0326 25.9565 12.4766C25.988 12.442 26.0173 12.4053 26.0435 12.3659C26.7328 11.5116 27.6929 10.8889 28.7949 10.6232C28.7997 10.6221 28.8044 10.621 28.8092 10.62C29.1911 10.5291 29.5896 10.4801 29.9998 10.4801C30.4032 10.4801 30.7948 10.5277 31.1709 10.6156ZM14.4939 3.66144C15.4265 2.69594 16.4805 2.28168 17.7145 2.39418C19.8531 2.58719 23.2722 5.13953 26.9907 9.28539C26.193 9.66648 25.4804 10.195 24.8873 10.8372C22.6884 10.4782 20.4729 10.2754 18.2923 10.2377C15.3228 10.1887 12.9937 11.4446 11.6142 13.8019C11.4836 10.2045 12.4314 5.79719 14.4939 3.66144ZM18.1219 12.1097C18.1679 12.1097 18.2144 12.1102 18.2609 12.1109C20.0665 12.1422 21.8985 12.2923 23.7244 12.5542C23.4522 13.125 23.2554 13.7398 23.1462 14.3866H13.4573C14.4849 12.8746 16.0477 12.1097 18.1219 12.1097ZM2.82721 16.2602H11.9071C11.9089 16.2602 11.9104 16.2604 11.9121 16.2604C11.9131 16.2604 11.9142 16.2602 11.9151 16.2602H20.6587V27.6207H2.82721V16.2602ZM6.8601 29.4944H23.2733V58.627H6.8601V29.4944ZM53.1366 58.6268H36.7267V29.4944H53.1366V58.6268ZM57.1727 27.6207H39.3411V16.2602H48.0847C48.0857 16.2602 48.0868 16.2604 48.0877 16.2604C48.0894 16.2604 48.0909 16.2602 48.0925 16.2602H57.1724V27.6207H57.1727Z" fill="#EAD798"/>
</g>
<defs>
<clipPath id="clip0_99_1282">
<rect width="60" height="60" fill="white" transform="translate(0 0.501953)"/>
</clipPath>
</defs>
</svg>
