<svg width="60" height="61" viewBox="0 0 60 61" fill="none" xmlns="http://www.w3.org/2000/svg">
<path d="M15.9375 34.252H5.625C4.63078 34.2508 3.6776 33.8554 2.97458 33.1524C2.27156 32.4494 1.87612 31.4962 1.875 30.502V6.12695C1.87612 5.13273 2.27156 4.17956 2.97458 3.47654C3.6776 2.77352 4.63078 2.37807 5.625 2.37695H30C30.9942 2.37807 31.9474 2.77352 32.6504 3.47654C33.3534 4.17956 33.7489 5.13273 33.75 6.12695V22.0645H31.875V6.12695C31.8744 5.62985 31.6767 5.15328 31.3252 4.80178C30.9737 4.45028 30.4971 4.25254 30 4.25195H5.625C5.1279 4.25254 4.65133 4.45028 4.29983 4.80178C3.94832 5.15328 3.75059 5.62985 3.75 6.12695V30.502C3.75059 30.9991 3.94832 31.4756 4.29983 31.8271C4.65133 32.1786 5.1279 32.3764 5.625 32.377H15.9375V34.252Z" fill="#EAD798"/>
<path d="M14.0625 30.502H8.4375C8.18886 30.502 7.9504 30.4032 7.77459 30.2274C7.59877 30.0516 7.5 29.8131 7.5 29.5645V7.06445C7.5 6.81581 7.59877 6.57736 7.77459 6.40154C7.9504 6.22573 8.18886 6.12695 8.4375 6.12695H19.6875C21.9253 6.12695 24.0714 7.0159 25.6537 8.59824C27.2361 10.1806 28.125 12.3267 28.125 14.5645C28.125 16.8022 27.2361 18.9483 25.6537 20.5307C24.0714 22.113 21.9253 23.002 19.6875 23.002H15V29.5645C15 29.8131 14.9012 30.0516 14.7254 30.2274C14.5496 30.4032 14.3111 30.502 14.0625 30.502ZM9.375 28.627H13.125V22.0645C13.125 21.8158 13.2238 21.5774 13.3996 21.4015C13.5754 21.2257 13.8139 21.127 14.0625 21.127H19.6875C21.428 21.127 23.0972 20.4355 24.3279 19.2048C25.5586 17.9741 26.25 16.3049 26.25 14.5645C26.25 12.824 25.5586 11.1548 24.3279 9.92407C23.0972 8.69336 21.428 8.00195 19.6875 8.00195H9.375V28.627ZM19.6875 17.377H14.0625C13.8139 17.377 13.5754 17.2782 13.3996 17.1024C13.2238 16.9266 13.125 16.6881 13.125 16.4395V12.6895C13.125 12.4408 13.2238 12.2024 13.3996 12.0265C13.5754 11.8507 13.8139 11.752 14.0625 11.752H19.6875C20.4334 11.752 21.1488 12.0483 21.6762 12.5757C22.2037 13.1032 22.5 13.8185 22.5 14.5645C22.5 15.3104 22.2037 16.0257 21.6762 16.5532C21.1488 17.0806 20.4334 17.377 19.6875 17.377ZM15 15.502H19.6875C19.9361 15.502 20.1746 15.4032 20.3504 15.2274C20.5262 15.0515 20.625 14.8131 20.625 14.5645C20.625 14.3158 20.5262 14.0774 20.3504 13.9015C20.1746 13.7257 19.9361 13.627 19.6875 13.627H15V15.502Z" fill="#EAD798"/>
<path d="M56.9129 39.214C56.1696 38.467 55.1677 38.0341 54.1143 38.005L50.2803 26.5034C50.032 25.7564 49.5546 25.1067 48.9159 24.6464C48.2773 24.1861 47.5099 23.9388 46.7227 23.9395H24.5273C23.7401 23.9388 22.9727 24.1861 22.3341 24.6464C21.6954 25.1067 21.218 25.7564 20.9696 26.5034L17.1357 38.005C16.0609 38.0378 15.041 38.4878 14.2923 39.2597C13.5436 40.0317 13.1249 41.0648 13.125 42.1402V49.252C13.1261 50.2462 13.5216 51.1994 14.2246 51.9024C14.9276 52.6054 15.8808 53.0008 16.875 53.002H23.4375V56.752H17.8125V54.877H15.9375V56.752C15.9381 57.2491 16.1358 57.7256 16.4873 58.0771C16.8388 58.4286 17.3154 58.6264 17.8125 58.627H23.4375C23.9346 58.6264 24.4112 58.4286 24.7627 58.0771C25.1142 57.7256 25.3119 57.2491 25.3125 56.752V53.002H45.9375V56.752C45.9381 57.2491 46.1358 57.7256 46.4873 58.0771C46.8388 58.4286 47.3154 58.6264 47.8125 58.627H53.4375C53.9346 58.6264 54.4112 58.4286 54.7627 58.0771C55.1142 57.7256 55.3119 57.2491 55.3125 56.752V52.8832C56.117 52.6744 56.8294 52.2046 57.3384 51.5475C57.8473 50.8904 58.1239 50.0831 58.125 49.252V42.1402C58.1265 41.5965 58.0201 41.058 57.8121 40.5557C57.604 40.0534 57.2984 39.5974 56.9129 39.214ZM24.5273 25.8145H46.7227C47.1163 25.8142 47.5 25.9379 47.8194 26.168C48.1387 26.3982 48.3775 26.7231 48.5017 27.0966L48.6993 27.6895H22.5507L22.7483 27.0966C22.8725 26.7231 23.1113 26.3982 23.4306 26.168C23.75 25.9379 24.1337 25.8142 24.5273 25.8145ZM21.9258 29.5645H49.3242L52.1367 38.002H19.1133L21.9258 29.5645ZM53.4375 56.752H47.8125V53.002H53.4375L53.4384 56.752H53.4375ZM56.25 49.252C56.2494 49.7491 56.0517 50.2256 55.7002 50.5771C55.3487 50.9286 54.8721 51.1264 54.375 51.127H16.875C16.3779 51.1264 15.9013 50.9286 15.5498 50.5771C15.1983 50.2256 15.0006 49.7491 15 49.252V42.1402C15 41.54 15.2385 40.9643 15.6629 40.5399C16.0874 40.1154 16.663 39.877 17.2632 39.877H53.9868C54.587 39.877 55.1626 40.1154 55.5871 40.5399C56.0115 40.9643 56.25 41.54 56.25 42.1402V49.252Z" fill="#EAD798"/>
<path d="M20.625 41.752C19.8833 41.752 19.1583 41.9719 18.5416 42.3839C17.9249 42.796 17.4443 43.3817 17.1605 44.0669C16.8766 44.7521 16.8024 45.5061 16.9471 46.2335C17.0918 46.961 17.4489 47.6292 17.9734 48.1536C18.4978 48.678 19.166 49.0352 19.8934 49.1799C20.6208 49.3246 21.3748 49.2503 22.0601 48.9665C22.7453 48.6827 23.331 48.202 23.743 47.5853C24.1551 46.9687 24.375 46.2436 24.375 45.502C24.3739 44.5077 23.9784 43.5546 23.2754 42.8515C22.5724 42.1485 21.6192 41.7531 20.625 41.752ZM20.625 47.377C20.2542 47.377 19.8916 47.267 19.5833 47.061C19.275 46.8549 19.0346 46.5621 18.8927 46.2195C18.7508 45.8769 18.7137 45.4999 18.786 45.1362C18.8584 44.7724 19.037 44.4383 19.2992 44.1761C19.5614 43.9139 19.8955 43.7353 20.2592 43.663C20.6229 43.5906 20.9999 43.6278 21.3425 43.7697C21.6851 43.9116 21.978 44.1519 22.184 44.4603C22.39 44.7686 22.5 45.1311 22.5 45.502C22.4994 45.9991 22.3017 46.4756 21.9502 46.8271C21.5987 47.1786 21.1221 47.3764 20.625 47.377Z" fill="#EAD798"/>
<path d="M50.625 41.752C49.8833 41.752 49.1583 41.9719 48.5416 42.3839C47.9249 42.796 47.4443 43.3817 47.1605 44.0669C46.8766 44.7521 46.8024 45.5061 46.9471 46.2335C47.0918 46.961 47.4489 47.6292 47.9734 48.1536C48.4978 48.678 49.166 49.0352 49.8934 49.1799C50.6208 49.3246 51.3748 49.2503 52.0601 48.9665C52.7453 48.6827 53.331 48.202 53.743 47.5853C54.1551 46.9687 54.375 46.2436 54.375 45.502C54.3739 44.5077 53.9784 43.5546 53.2754 42.8515C52.5724 42.1485 51.6192 41.7531 50.625 41.752ZM50.625 47.377C50.2542 47.377 49.8916 47.267 49.5833 47.061C49.275 46.8549 49.0346 46.5621 48.8927 46.2195C48.7508 45.8769 48.7137 45.4999 48.786 45.1362C48.8584 44.7724 49.037 44.4383 49.2992 44.1761C49.5614 43.9139 49.8955 43.7353 50.2592 43.663C50.6229 43.5906 50.9999 43.6278 51.3425 43.7697C51.6851 43.9116 51.978 44.1519 52.184 44.4603C52.39 44.7686 52.5 45.1311 52.5 45.502C52.4994 45.9991 52.3017 46.4756 51.9502 46.8271C51.5987 47.1786 51.1221 47.3764 50.625 47.377Z" fill="#EAD798"/>
<path d="M26.25 42.6895H45V44.5645H26.25V42.6895Z" fill="#EAD798"/>
<path d="M26.25 46.4395H45V48.3145H26.25V46.4395Z" fill="#EAD798"/>
</svg>
