<svg width="202" height="131" viewBox="0 0 202 131" fill="none" xmlns="http://www.w3.org/2000/svg">
<g clip-path="url(#clip0_347_327)">
<path d="M33.4961 127.272C33.4961 127.156 33.5621 127.048 33.6529 127.048H52.3545C52.4453 127.048 52.5196 127.156 52.5196 127.272V127.537C52.5196 127.653 52.4453 127.76 52.3545 127.76H33.6529C33.5704 127.76 33.4961 127.661 33.4961 127.537V127.272Z" fill="#69170E"/>
<path d="M169.287 127.272C169.287 127.156 169.353 127.048 169.444 127.048H188.146C188.236 127.048 188.311 127.156 188.311 127.272V127.537C188.311 127.653 188.236 127.76 188.146 127.76H169.444C169.361 127.76 169.287 127.661 169.287 127.537V127.272Z" fill="#69170E"/>
<path d="M3.62965 104.819C4.40545 104.819 5.09046 105.084 5.67643 105.606C6.25415 106.128 6.55126 106.782 6.55126 107.578C6.55126 108.903 5.71769 110.047 4.05056 111.016C6.69982 112.574 9.78648 113.344 13.2941 113.344C20.3752 113.344 27.6545 110.362 35.1649 104.388C38.3258 101.894 44.7632 95.597 54.4937 85.4889C62.4745 77.1786 69.209 71.5197 74.6891 68.4956C71.883 65.8277 68.0453 63.806 63.1677 62.439C59.0247 61.2707 54.667 60.6907 50.0948 60.6907C41.9572 60.6907 34.6697 62.1738 28.224 65.1483C20.9695 68.4459 15.4646 73.3674 11.7012 79.8879C10.389 82.1499 9.72871 84.3703 9.72871 86.5494C9.72871 89.3664 10.9914 91.5372 13.5169 93.0617C15.638 94.3542 18.1882 95.0088 21.1675 95.0088C26.0204 95.0088 31.8966 93.2191 38.788 89.6398C46.5954 85.6297 50.4992 81.4456 50.4992 77.0875C50.4992 75.2896 49.5996 73.8562 47.8086 72.7874C46.2901 71.876 44.5899 71.412 42.6917 71.412C33.6463 71.412 25.2363 77.2946 17.4536 89.0681L17.107 89.2173L16.5788 88.8362L16.6531 88.4964C18.6999 83.7655 22.2817 79.5897 27.4152 75.969C32.6724 72.2488 37.8141 70.3846 42.8403 70.3846C44.9613 70.3846 46.8678 70.9315 48.5597 72.0251C50.5074 73.2928 51.4813 74.9582 51.4813 77.0046C51.4813 82.357 47.7426 86.9968 40.257 90.9324C33.8691 94.2796 27.7288 95.9533 21.8361 95.9533C18.4523 95.9533 15.5554 95.307 13.1538 94.0145C10.1496 92.3906 8.64755 90.0044 8.64755 86.8642C8.64755 84.478 9.39033 81.9924 10.8842 79.4074C14.6723 72.7377 20.268 67.7167 27.671 64.3446C34.2405 61.3287 41.6931 59.8125 50.037 59.8125C54.766 59.8125 59.2805 60.4339 63.6051 61.6767C68.7056 63.1184 72.7001 65.2311 75.5804 67.9902C78.0068 66.4408 80.8212 64.8251 84.0316 63.1184L84.337 63.6901L84.1472 64.1043C81.8528 65.2228 79.1953 66.7971 76.1912 68.827C77.8088 71.0806 78.6176 73.3922 78.6176 75.7536C78.6176 79.9377 77.1733 83.2767 74.3012 85.7623C73.088 86.8559 69.8693 88.7533 64.6368 91.4709C65.3961 93.2191 65.7757 94.8845 65.7757 96.4504C65.7757 101.09 63.4978 105.341 58.9504 109.193C54.601 112.897 50.0783 114.745 45.3822 114.745C42.0727 114.745 40.4138 113.543 40.4138 111.132C40.4138 109.21 42.667 106.641 47.1649 103.452C51.5391 100.353 54.733 98.8366 56.755 98.8863L57.1347 99.3006L56.8293 99.6817C53.8995 100.775 50.8788 102.292 47.7756 104.247C43.583 106.907 41.4868 109.193 41.4868 111.099C41.4868 111.886 41.8746 112.549 42.6587 113.079C43.3189 113.51 44.0617 113.725 44.8953 113.725C48.733 113.725 52.8678 111.29 57.2832 106.418C61.6574 101.629 63.8362 97.2707 63.8362 93.3683C63.8362 92.9126 63.7537 92.3823 63.5721 91.7692C62.59 92.3326 61.3933 92.606 59.9903 92.606C59.1567 92.606 58.3561 92.4403 57.5803 92.1089C56.5982 91.678 56.103 91.0898 56.103 90.3524C56.103 88.9356 57.44 88.223 60.1141 88.223C61.4263 88.223 62.7303 88.9604 64.0095 90.4269C67.3438 88.397 70.0921 85.9031 72.2544 82.9287C74.7551 79.5317 76.0013 76.085 76.0013 72.5803C76.0013 71.5446 75.7868 70.4509 75.3576 69.3075C71.1155 71.4866 66.9394 75.1819 62.8458 80.3934C55.9215 89.151 51.5803 94.5033 49.8142 96.467C44.6807 102.2 39.6546 106.492 34.7274 109.334C28.6614 112.839 22.0836 114.587 14.9777 114.587C12.0726 114.587 9.24178 114.156 6.48523 113.286C2.69705 112.085 0.798828 110.395 0.798828 108.207C0.798828 107.346 1.06293 106.559 1.59113 105.863C2.11933 105.158 2.79609 104.81 3.60489 104.81L3.62965 104.819ZM57.2585 90.3607C57.2585 91.1975 58.2076 91.62 60.1058 91.62C61.2943 91.62 62.2351 91.3632 62.9531 90.8578C61.9628 89.7641 60.8816 89.2256 59.6932 89.2256C58.0755 89.2256 57.2667 89.6067 57.2667 90.3689L57.2585 90.3607Z" fill="#69170E"/>
<path d="M82.0933 106.268L82.473 106.873L82.3244 107.254C75.4248 112.251 70.6628 114.753 68.0383 114.753C64.7288 114.753 63.0781 113.468 63.0781 110.908C63.0781 108.166 64.8113 105.407 68.2693 102.615C71.5788 99.9468 74.6243 98.6211 77.4056 98.6211C78.9984 98.6211 79.7907 99.2756 79.7907 100.601C79.7907 102.126 78.5775 103.468 76.1511 104.636C73.898 105.597 71.6531 106.575 69.4083 107.561C66.9819 108.829 65.7686 110.378 65.7686 112.201C65.7686 113.112 66.3381 113.568 67.477 113.568C69.8787 113.568 72.8994 112.35 76.5555 109.914C80.2034 107.478 82.0603 106.26 82.1098 106.26L82.0933 106.268ZM70.118 105.738C75.8044 103.866 78.6435 102.159 78.6435 100.643C78.6435 100.054 78.3712 99.7645 77.81 99.7645C75.8622 99.7645 73.3038 101.761 70.118 105.738Z" fill="#69170E"/>
<path d="M98.2024 106.384L98.4665 106.766C98.4418 107.959 96.395 109.607 92.3262 111.712C88.4555 113.717 85.7897 114.719 84.3289 114.719C82.7361 114.719 81.9438 113.891 81.9438 112.25C81.9438 110.983 82.439 109.624 83.4211 108.182C83.5449 108.033 84.4692 106.89 86.1859 104.76C85.0965 105.523 83.7347 106.36 82.0923 107.271L81.6797 106.774L81.9108 106.36C83.7017 105.191 85.5091 104.031 87.3248 102.855C89.3964 101.438 91.014 100.054 92.1777 98.7121C94.7031 95.6714 97.2286 92.6224 99.7623 89.5817C104.508 84.0305 108.684 79.6309 112.266 76.3831C117.267 71.9172 121.105 69.6885 123.787 69.6885C124.522 69.6885 125.141 69.9702 125.669 70.5419C126.181 71.1136 126.445 71.7681 126.445 72.5055C126.445 75.1485 124.563 78.0318 120.8 81.1803C118.373 83.2102 114.535 85.7704 109.278 88.8608C104.202 91.8518 101.165 93.7658 100.183 94.6026C97.9631 96.5828 95.3881 99.3335 92.45 102.855C90.0236 105.746 87.6137 108.655 85.212 111.571C84.9562 111.853 84.6838 112.308 84.3785 112.938L85.0222 113.352C86.9204 113.427 89.4954 112.342 92.7554 110.08C96.3207 107.619 98.1364 106.393 98.2107 106.393L98.2024 106.384ZM101.083 92.9538C108.841 88.1069 113.57 85.0744 115.262 83.8565C122.062 78.9598 125.454 75.1734 125.454 72.4806C125.454 71.2627 124.819 70.6496 123.556 70.6496C120.676 70.6496 116.59 73.6903 111.317 79.7801C109.773 81.5283 106.365 85.9195 101.083 92.9455V92.9538Z" fill="#69170E"/>
<path d="M114.122 106.384L114.386 106.766C114.362 107.959 112.315 109.607 108.246 111.712C104.375 113.717 101.71 114.719 100.249 114.719C98.656 114.719 97.8637 113.891 97.8637 112.25C97.8637 110.983 98.3589 109.624 99.341 108.182C99.4648 108.033 100.389 106.89 102.106 104.76C101.016 105.523 99.6546 106.36 98.0123 107.271L97.5996 106.774L97.8224 106.36C99.6134 105.191 101.421 104.031 103.245 102.855C105.316 101.438 106.934 100.054 108.098 98.7121C110.623 95.6714 113.149 92.6224 115.682 89.5817C120.428 84.0305 124.604 79.6309 128.186 76.3831C133.187 71.9172 137.025 69.6885 139.707 69.6885C140.442 69.6885 141.061 69.9702 141.581 70.5419C142.1 71.1136 142.356 71.7681 142.356 72.5055C142.356 75.1485 140.475 78.0318 136.711 81.1803C134.285 83.2102 130.447 85.7704 125.19 88.8608C120.114 91.8518 117.077 93.7658 116.095 94.6026C113.875 96.5828 111.292 99.3335 108.362 102.855C105.935 105.746 103.525 108.655 101.124 111.571C100.876 111.853 100.595 112.308 100.29 112.938L100.934 113.352C102.832 113.427 105.407 112.342 108.667 110.08C112.232 107.619 114.048 106.393 114.131 106.393L114.122 106.384ZM117.003 92.9538C124.761 88.1069 129.481 85.0744 131.173 83.8565C137.974 78.9598 141.366 75.1734 141.366 72.4806C141.366 71.2627 140.739 70.6496 139.476 70.6496C136.596 70.6496 132.519 73.6903 127.237 79.7801C125.693 81.5283 122.285 85.9195 117.003 92.9455V92.9538Z" fill="#69170E"/>
<path d="M131.098 106.268L131.477 106.873L131.329 107.254C124.429 112.251 119.667 114.753 117.034 114.753C113.725 114.753 112.074 113.468 112.074 110.908C112.074 108.166 113.807 105.407 117.265 102.615C120.575 99.9468 123.62 98.6211 126.402 98.6211C127.995 98.6211 128.795 99.2756 128.795 100.601C128.795 102.126 127.582 103.468 125.155 104.636C122.902 105.597 120.657 106.575 118.404 107.561C115.978 108.829 114.765 110.378 114.765 112.201C114.765 113.112 115.334 113.568 116.473 113.568C118.867 113.568 121.895 112.35 125.552 109.914C129.199 107.478 131.048 106.26 131.106 106.26L131.098 106.268ZM119.122 105.738C124.809 103.866 127.648 102.159 127.648 100.643C127.648 100.054 127.367 99.7645 126.814 99.7645C124.867 99.7645 122.3 101.761 119.122 105.738Z" fill="#69170E"/>
<path d="M135.003 112.814C135.003 113.27 135.482 113.502 136.439 113.502C139.32 113.502 143.223 111.331 148.151 106.998L147.961 106.235C147.961 104.918 148.704 103.344 150.197 101.513C151.741 99.5822 153.135 98.6211 154.406 98.6211C155.058 98.6211 155.397 98.9525 155.397 99.6071C155.397 101.637 153.548 104.147 149.867 107.138C150.247 107.47 150.676 107.636 151.155 107.636C151.84 107.636 152.607 107.42 153.466 106.989C154.324 106.558 154.943 106.318 155.323 106.268L155.702 106.84L155.479 107.254C153.986 108.265 152.525 108.779 151.08 108.779C150.321 108.779 149.628 108.489 148.992 107.901C143.562 112.367 139.452 114.595 136.679 114.595C134.277 114.595 133.08 113.502 133.08 111.306C133.08 109.723 134.467 107.503 137.248 104.653C140.03 101.794 141.433 100.245 141.457 99.9882L140.929 99.6071C139.79 99.5573 137.867 100.842 135.168 103.451C132.461 106.061 131.075 107.37 131.001 107.37L130.514 106.989C130.538 106.07 132.082 104.446 135.152 102.118C138.222 99.7893 140.285 98.6294 141.35 98.6294C142.794 98.6294 143.512 99.5491 143.512 101.38C143.512 102.963 142.093 105.133 139.27 107.901C136.439 110.668 135.02 112.309 135.02 112.814H135.003Z" fill="#69170E"/>
<path d="M155.395 107.296L154.941 106.724C154.991 106.501 156.452 105.366 159.307 103.336C162.369 101.099 164.259 99.5575 164.985 98.6958H169.987C167.783 101.157 165.58 103.626 163.376 106.111C159.769 110.221 157.946 112.532 157.896 113.038L158.424 113.377C162.014 113.551 168.229 108.663 177.068 98.6875H182.185C179.957 101.148 177.72 103.609 175.492 106.07C171.819 110.179 169.979 112.474 169.979 112.955C169.979 113.311 170.243 113.485 170.779 113.485C173.874 113.485 178.174 111.091 183.704 106.293L183.968 106.791L183.852 107.13C178.422 112.176 173.792 114.703 169.979 114.703C168.411 114.703 167.626 113.957 167.626 112.458C167.626 111.339 168.122 109.939 169.104 108.232C163.657 112.648 159.703 114.852 157.244 114.852C155.824 114.852 155.115 114.032 155.115 112.383C155.115 111.041 156.757 108.348 160.042 104.322C158.754 105.258 157.195 106.252 155.379 107.288L155.395 107.296Z" fill="#69170E"/>
<path d="M200.799 106.268L201.178 106.873L201.03 107.254C194.13 112.251 189.368 114.753 186.736 114.753C183.426 114.753 181.775 113.468 181.775 110.908C181.775 108.166 183.509 105.407 186.967 102.615C190.276 99.9468 193.322 98.6211 196.103 98.6211C197.696 98.6211 198.496 99.2756 198.496 100.601C198.496 102.126 197.283 103.468 194.857 104.636C192.612 105.597 190.359 106.575 188.114 107.561C185.687 108.829 184.474 110.378 184.474 112.201C184.474 113.112 185.044 113.568 186.183 113.568C188.584 113.568 191.613 112.35 195.261 109.914C198.917 107.478 200.766 106.26 200.815 106.26L200.799 106.268ZM188.824 105.738C194.51 103.866 197.349 102.159 197.349 100.643C197.349 100.054 197.068 99.7645 196.515 99.7645C194.568 99.7645 192.009 101.761 188.824 105.738Z" fill="#69170E"/>
<path d="M126.595 11.4211L98.9364 8.80664L93.4322 13.6228L89.8545 29.0346L82.4238 42.6575L88.3408 47.6113L105.404 57.6564L124.393 49.9505L132.374 31.6491L135.264 16.3749L126.595 11.4211Z" fill="#EAD798"/>
<path d="M118.738 32.9343C118.738 33.4479 119.291 33.6965 120.405 33.6965C121.099 33.6965 121.652 33.5391 122.064 33.2325C121.487 32.5697 120.851 32.2383 120.158 32.2383C119.217 32.2383 118.738 32.4703 118.738 32.9343Z" fill="#69170E"/>
<path d="M142.359 37.1514C142.211 35.5689 141.427 33.713 140.007 31.5671C140.956 30.1503 141.625 28.7915 141.988 27.499C142.401 26.0242 142.442 24.5494 142.095 23.058C141.749 21.5666 141.097 20.3404 140.131 19.3793C139.644 18.8905 138.728 18.1945 137.374 17.2914C135.617 16.1231 134.593 15.4023 134.313 15.1206C133.628 14.4412 133.297 13.5133 133.314 12.345C133.33 11.1768 133.933 9.67713 135.138 7.85435L134.502 7.21637C132.662 8.45089 131.16 9.06401 130.004 9.05573C128.841 9.05573 127.916 8.69945 127.215 7.98691C126.744 7.51465 126.15 6.69439 125.44 5.53444C124.467 3.95194 123.716 2.89969 123.204 2.386C121.413 0.588076 119.127 -0.190749 116.354 0.0578118C114.794 0.198663 112.962 0.977488 110.841 2.37772C109.429 1.43318 108.084 0.762068 106.797 0.397512C105.336 -0.0167565 103.859 -0.049898 102.373 0.298088C100.887 0.646073 99.6659 1.30062 98.7003 2.26172C98.2134 2.75056 97.5201 3.67852 96.6123 5.02903C95.4486 6.8021 94.7306 7.8212 94.45 8.10291C93.7732 8.78231 92.8488 9.11372 91.6852 9.10544C90.5215 9.09715 89.0277 8.48403 87.212 7.27437L86.5765 7.91234C87.8062 9.75998 88.4169 11.2679 88.4087 12.4279C88.4087 13.5878 88.0455 14.5241 87.344 15.2283C86.8736 15.7089 86.0565 16.2971 84.8928 17.0097C83.3165 17.9956 82.2683 18.7413 81.7566 19.255C79.9657 21.0529 79.1899 23.3397 79.4375 26.1319C79.5778 27.7061 80.3619 29.5537 81.7649 31.6914C80.824 33.0999 80.1555 34.4587 79.7924 35.7429C79.3797 37.2094 79.3467 38.6925 79.6934 40.1839C80.04 41.6752 80.692 42.9015 81.6576 43.8626C82.1445 44.3514 83.0606 45.0474 84.4142 45.9505C86.1721 47.1187 87.1955 47.8395 87.4761 48.1213C88.1528 48.8007 88.4912 49.7286 88.4747 50.8968C88.4582 52.0651 87.8557 53.5647 86.6508 55.3875L87.2862 56.0255C89.1267 54.791 90.6205 54.1779 91.7842 54.1861C92.9396 54.1861 93.8722 54.5507 94.5738 55.255C95.0442 55.7272 95.6384 56.5475 96.3482 57.7074C97.3303 59.2982 98.0731 60.3422 98.5848 60.8559C100.376 62.6538 102.662 63.4326 105.435 63.1841C106.986 63.0432 108.81 62.2727 110.915 60.889C112.334 61.8418 113.696 62.5295 115 62.8941C116.469 63.3083 117.938 63.3415 119.424 62.9935C120.909 62.6455 122.131 61.991 123.088 61.0216C123.575 60.5327 124.269 59.6131 125.176 58.2543C126.34 56.4895 127.058 55.4621 127.339 55.1804C128.015 54.501 128.94 54.1613 130.103 54.1779C131.267 54.1861 132.761 54.7993 134.577 56.0089L135.212 55.3709C133.982 53.5233 133.372 52.0154 133.38 50.8554C133.38 49.6955 133.735 48.7592 134.445 48.055C134.915 47.5744 135.732 46.9861 136.888 46.2736C138.464 45.2877 139.512 44.542 140.024 44.0283C141.815 42.2303 142.59 39.9353 142.351 37.1514H142.359ZM134.461 16.9185C133.116 17.5979 131.564 18.559 129.806 19.7936C130.755 21.1689 131.226 22.5774 131.226 24.0191C131.226 26.571 130.384 28.6092 128.7 30.1254C127.991 30.7883 126.109 31.9565 123.055 33.6053C123.501 34.6741 123.724 35.6849 123.724 36.646C123.724 39.4796 122.395 42.0729 119.738 44.4177C117.196 46.6796 114.555 47.8064 111.806 47.8064C109.875 47.8064 108.909 47.069 108.909 45.6025C108.909 44.426 110.222 42.86 112.854 40.913C115.405 39.0239 117.278 38.0959 118.458 38.1291L118.681 38.3859L118.508 38.6179C116.791 39.2808 115.033 40.2087 113.218 41.4018C110.766 43.0257 109.537 44.4177 109.537 45.5776C109.537 46.0582 109.768 46.4642 110.222 46.779C110.61 47.0441 111.039 47.1767 111.526 47.1767C113.771 47.1767 116.18 45.6936 118.764 42.7192C121.322 39.7945 122.601 37.1431 122.601 34.7569C122.601 34.4835 122.552 34.1521 122.445 33.7876C121.867 34.1273 121.174 34.3013 120.348 34.3013C119.861 34.3013 119.391 34.2018 118.937 33.9947C118.368 33.7296 118.079 33.3733 118.079 32.9259C118.079 32.0559 118.863 31.6251 120.423 31.6251C121.19 31.6251 121.949 32.0725 122.7 32.9673C124.648 31.7245 126.249 30.2083 127.52 28.3938C128.981 26.3224 129.707 24.218 129.707 22.0803C129.707 21.4506 129.584 20.7795 129.336 20.0836C126.852 21.4175 124.417 23.6711 122.024 26.8444C117.98 32.1885 115.438 35.4529 114.406 36.646C111.41 40.1424 108.472 42.7606 105.592 44.4923C102.051 46.6299 98.2051 47.6987 94.0538 47.6987C92.3537 47.6987 90.703 47.4336 89.0937 46.9033C86.8818 46.1742 85.7677 45.1385 85.7677 43.8046C85.7677 43.2743 85.9245 42.802 86.2381 42.3712C86.5435 41.9404 86.9396 41.7249 87.41 41.7249C87.8805 41.7249 88.2684 41.8824 88.6067 42.2055C88.9451 42.5286 89.1184 42.9263 89.1184 43.4069C89.1184 44.2188 88.6315 44.9148 87.6576 45.5031C89.2092 46.4559 91.0084 46.9282 93.0634 46.9282C97.1983 46.9282 101.457 45.1054 105.848 41.4681C107.696 39.9519 111.46 36.1075 117.146 29.9431C121.809 24.8725 125.746 21.4175 128.948 19.5781C127.306 17.9542 125.061 16.7197 122.213 15.8829C119.787 15.1703 117.245 14.8141 114.571 14.8141C109.817 14.8141 105.559 15.7172 101.795 17.5317C97.5614 19.545 94.3344 22.5443 92.1391 26.5213C91.3715 27.9049 90.9836 29.2555 90.9836 30.5894C90.9836 32.3128 91.7182 33.6301 93.1955 34.5581C94.4335 35.3535 95.9273 35.7429 97.6687 35.7429C100.5 35.7429 103.941 34.6492 107.969 32.4702C112.533 30.026 114.819 27.4741 114.819 24.8062C114.819 23.7043 114.299 22.8343 113.242 22.1798C112.359 21.6246 111.361 21.3429 110.255 21.3429C104.964 21.3429 100.046 24.9305 95.5064 32.1139L95.3083 32.205L94.9947 31.9731L95.0359 31.7659C96.2326 28.8826 98.3289 26.3307 101.325 24.1185C104.395 21.8483 107.399 20.7132 110.337 20.7132C111.575 20.7132 112.698 21.0447 113.68 21.7158C114.819 22.4863 115.388 23.5054 115.388 24.7565C115.388 28.0209 113.201 30.8545 108.827 33.249C105.088 35.2955 101.506 36.3146 98.0648 36.3146C96.0841 36.3146 94.3922 35.9169 92.9892 35.1298C91.2312 34.1355 90.3564 32.6856 90.3564 30.7634C90.3564 29.3052 90.7938 27.7972 91.6604 26.2147C93.8722 22.1466 97.1487 19.081 101.473 17.0263C105.319 15.1869 109.669 14.2672 114.546 14.2672C117.303 14.2672 119.944 14.6484 122.469 15.4023C125.449 16.2889 127.784 17.5731 129.468 19.255C130.879 18.3105 132.53 17.3245 134.403 16.2806L134.585 16.6286L134.469 16.8854L134.461 16.9185Z" fill="#69170E"/>
<path d="M66.5812 128.39V130.611L67.3735 130.76V130.859H64.6582V130.76L65.4505 130.611V124.198L64.6582 124.049V123.949H67.0434C67.5881 123.949 68.0833 124.007 68.5042 124.115C68.9333 124.231 69.2965 124.38 69.5853 124.579C69.8742 124.778 70.097 125.01 70.2538 125.283C70.4106 125.548 70.4849 125.847 70.4849 126.17C70.4849 126.493 70.4106 126.791 70.2538 127.056C70.097 127.33 69.8742 127.562 69.5853 127.752C69.2965 127.951 68.9333 128.1 68.5042 128.216C68.075 128.324 67.5881 128.382 67.0434 128.382H66.5812V128.39ZM66.5812 128.191H67.0434C67.7449 128.191 68.2813 128.034 68.661 127.719C69.0406 127.404 69.2304 126.891 69.2304 126.17C69.2304 125.449 69.0406 124.935 68.661 124.62C68.2813 124.305 67.7449 124.148 67.0434 124.148H66.5812V128.191Z" fill="#69170E"/>
<path d="M74.5355 128.829H71.8202L71.16 130.503L72.0183 130.751V130.851H70.0293V130.751L70.8876 130.503L73.4708 123.8H73.6689L76.4502 130.602L77.2425 130.751V130.851H74.4612V130.751L75.2535 130.602L74.5272 128.829H74.5355ZM71.8863 128.647H74.4612L73.1325 125.382L71.8863 128.647Z" fill="#69170E"/>
<path d="M80.0401 123.949C80.6096 123.949 81.0965 123.999 81.5092 124.09C81.9219 124.181 82.2685 124.305 82.5408 124.463C82.8132 124.62 83.0195 124.803 83.1516 125.01C83.2836 125.217 83.3496 125.441 83.3496 125.673C83.3496 125.863 83.3084 126.029 83.2341 126.178C83.1598 126.327 83.0608 126.46 82.9452 126.576C82.8297 126.692 82.6894 126.783 82.5243 126.866C82.3675 126.949 82.2107 127.007 82.0456 127.065C81.666 127.189 81.2368 127.272 80.7582 127.305C81.1461 127.338 81.5009 127.404 81.8228 127.512C82.0952 127.603 82.351 127.736 82.5904 127.918C82.8297 128.092 82.97 128.332 83.0113 128.639L83.2754 130.362C83.2919 130.486 83.3331 130.578 83.3992 130.627C83.4569 130.677 83.5312 130.702 83.6137 130.702C83.655 130.702 83.7045 130.694 83.754 130.669C83.8036 130.644 83.8531 130.619 83.8944 130.586C83.9356 130.553 83.9769 130.511 84.0181 130.462L84.1502 130.561C84.1007 130.644 84.0181 130.727 83.9274 130.785C83.8448 130.834 83.7458 130.884 83.6137 130.934C83.4817 130.983 83.3331 131 83.1598 131C82.8545 131 82.6151 130.934 82.4253 130.81C82.2355 130.685 82.1282 130.528 82.1034 130.362L81.8393 128.639C81.8063 128.415 81.7485 128.224 81.666 128.075C81.5835 127.918 81.4762 127.794 81.3441 127.694C81.2038 127.595 81.0305 127.52 80.8242 127.479C80.6096 127.437 80.3538 127.412 80.0566 127.412H79.5284V130.619L80.3207 130.768V130.867H77.6055V130.768L78.3978 130.619V124.206L77.6055 124.057V123.957H80.0566L80.0401 123.949ZM82.0952 125.681C82.0952 125.184 81.9219 124.811 81.567 124.546C81.2121 124.281 80.7086 124.148 80.0401 124.148H79.5119V127.205H80.0401C80.7004 127.205 81.2121 127.073 81.567 126.808C81.9219 126.543 82.0952 126.17 82.0952 125.673V125.681Z" fill="#69170E"/>
<path d="M86.7999 128.291V130.611L87.5922 130.76V130.859H84.877V130.76L85.6693 130.611V124.198L84.877 124.049V123.949H87.5922V124.049L86.7999 124.198V127.943L89.6473 124.297L88.7889 124.049V123.949H90.7779V124.049L89.9196 124.297L88.2525 126.435L90.9182 130.602L91.7105 130.752V130.851H88.8632V130.752L89.6555 130.602L87.5592 127.321L86.7999 128.291Z" fill="#69170E"/>
<path d="M97.1417 127.305V130.611L97.934 130.76V130.859H95.2188V130.76L96.011 130.611V124.198L95.2188 124.049V123.949H97.934V124.049L97.1417 124.198V127.106H99.8653V124.198L99.073 124.049V123.949H101.788V124.049L100.996 124.198V130.611L101.788 130.76V130.859H99.073V130.76L99.8653 130.611V127.305H97.1417Z" fill="#69170E"/>
<path d="M109.143 127.404C109.143 128.009 109.052 128.539 108.871 128.986C108.689 129.434 108.45 129.815 108.153 130.113C107.856 130.412 107.526 130.635 107.154 130.784C106.783 130.934 106.403 131.008 106.024 131.008C105.644 131.008 105.273 130.934 104.901 130.784C104.53 130.635 104.191 130.412 103.902 130.113C103.605 129.815 103.366 129.442 103.184 128.986C103.003 128.539 102.912 128.009 102.912 127.404C102.912 126.799 103.003 126.269 103.184 125.821C103.366 125.366 103.605 124.993 103.902 124.695C104.2 124.396 104.53 124.173 104.901 124.024C105.273 123.874 105.644 123.8 106.024 123.8C106.403 123.8 106.783 123.874 107.154 124.024C107.526 124.173 107.856 124.396 108.153 124.695C108.45 124.993 108.689 125.366 108.871 125.821C109.052 126.269 109.143 126.799 109.143 127.404ZM107.88 127.404C107.88 126.725 107.823 126.169 107.715 125.722C107.608 125.283 107.46 124.927 107.278 124.661C107.096 124.396 106.898 124.214 106.676 124.106C106.453 123.999 106.238 123.949 106.024 123.949C105.809 123.949 105.594 123.999 105.372 124.106C105.149 124.214 104.951 124.396 104.769 124.661C104.587 124.927 104.439 125.283 104.332 125.722C104.224 126.169 104.167 126.725 104.167 127.404C104.167 128.083 104.224 128.638 104.332 129.086C104.439 129.533 104.587 129.881 104.769 130.146C104.951 130.412 105.149 130.594 105.372 130.702C105.594 130.809 105.809 130.859 106.024 130.859C106.238 130.859 106.453 130.809 106.676 130.702C106.898 130.594 107.096 130.412 107.278 130.146C107.46 129.881 107.608 129.533 107.715 129.086C107.823 128.638 107.88 128.083 107.88 127.404Z" fill="#69170E"/>
<path d="M113.383 130.602L114.176 130.751V130.85H111.46V130.751L112.253 130.602V124.148H110.858C110.858 124.421 110.784 124.678 110.635 124.918C110.487 125.158 110.297 125.357 110.066 125.531H109.934C109.942 125.448 109.95 125.357 109.958 125.266C109.967 125.192 109.975 125.1 109.983 125.018C109.991 124.926 110 124.835 110 124.744C110 124.62 110 124.512 109.983 124.413C109.983 124.313 109.967 124.23 109.958 124.164C109.95 124.081 109.942 124.015 109.934 123.957H115.703C115.686 124.015 115.67 124.09 115.661 124.164C115.653 124.239 115.645 124.322 115.645 124.413C115.645 124.504 115.645 124.62 115.645 124.744C115.645 124.835 115.645 124.926 115.645 125.018C115.645 125.109 115.653 125.192 115.661 125.266C115.67 125.357 115.686 125.448 115.703 125.531H115.57C115.339 125.357 115.15 125.158 115.001 124.918C114.852 124.686 114.778 124.429 114.778 124.148H113.383V130.602Z" fill="#69170E"/>
<path d="M121.276 130.652C121.276 130.37 121.35 130.122 121.499 129.882C121.647 129.641 121.837 129.442 122.068 129.268H122.2C122.184 129.351 122.167 129.442 122.159 129.534C122.151 129.616 122.142 129.699 122.142 129.79C122.142 129.882 122.142 129.973 122.142 130.056C122.142 130.18 122.142 130.287 122.142 130.387C122.142 130.486 122.151 130.569 122.159 130.635C122.167 130.71 122.184 130.785 122.2 130.843H116.695V130.743L117.488 130.594V124.181L116.695 124.032V123.933H122.068C122.052 123.991 122.035 124.065 122.027 124.14C122.019 124.214 122.01 124.297 122.01 124.388C122.01 124.479 122.01 124.595 122.01 124.72C122.01 124.811 122.01 124.902 122.01 124.993C122.01 125.084 122.019 125.167 122.027 125.242C122.035 125.333 122.052 125.424 122.068 125.507H121.936C121.705 125.333 121.515 125.134 121.367 124.894C121.218 124.662 121.144 124.405 121.144 124.123H118.627V127.081H119.889L120.484 126.195H120.616V128.166H120.484L119.889 127.28H118.627V130.635H121.276V130.652Z" fill="#69170E"/>
<path d="M125.316 130.652H127.701C127.701 130.37 127.775 130.122 127.924 129.882C128.073 129.641 128.262 129.442 128.493 129.268H128.626C128.609 129.351 128.592 129.442 128.584 129.534C128.576 129.616 128.568 129.699 128.559 129.79C128.559 129.882 128.559 129.973 128.559 130.056C128.559 130.18 128.559 130.287 128.559 130.387C128.559 130.486 128.568 130.569 128.584 130.635C128.584 130.71 128.609 130.785 128.626 130.843H123.385V130.743L124.177 130.594V124.181L123.385 124.032V123.933H126.1V124.032L125.308 124.181V130.644L125.316 130.652Z" fill="#69170E"/>
<path d="M135.263 123.949C135.824 123.949 136.32 123.999 136.732 124.09C137.145 124.181 137.492 124.305 137.764 124.463C138.036 124.62 138.243 124.803 138.375 125.01C138.507 125.217 138.573 125.441 138.573 125.673C138.573 125.863 138.531 126.029 138.457 126.178C138.383 126.327 138.284 126.46 138.168 126.576C138.053 126.692 137.912 126.783 137.756 126.866C137.599 126.949 137.434 127.007 137.277 127.065C136.897 127.189 136.468 127.272 135.99 127.305C136.377 127.338 136.732 127.404 137.054 127.512C137.327 127.603 137.582 127.736 137.822 127.918C138.061 128.092 138.201 128.332 138.243 128.639L138.507 130.362C138.523 130.486 138.564 130.578 138.622 130.627C138.688 130.677 138.754 130.702 138.837 130.702C138.878 130.702 138.928 130.694 138.977 130.669C139.027 130.644 139.068 130.619 139.117 130.586C139.159 130.553 139.2 130.511 139.233 130.462L139.365 130.561C139.316 130.644 139.233 130.727 139.142 130.785C139.068 130.834 138.961 130.884 138.829 130.934C138.697 130.983 138.548 131 138.375 131C138.078 131 137.83 130.934 137.64 130.81C137.45 130.685 137.343 130.528 137.318 130.362L137.054 128.639C137.021 128.415 136.963 128.224 136.881 128.075C136.798 127.918 136.691 127.794 136.559 127.694C136.419 127.595 136.245 127.52 136.039 127.479C135.824 127.437 135.569 127.412 135.271 127.412H134.743V130.619L135.536 130.768V130.867H132.82V130.768L133.621 130.619V124.206L132.82 124.057V123.957H135.271L135.263 123.949ZM137.318 125.681C137.318 125.184 137.145 124.811 136.79 124.546C136.435 124.281 135.932 124.148 135.263 124.148H134.735V127.205H135.263C135.923 127.205 136.435 127.073 136.79 126.808C137.145 126.543 137.318 126.17 137.318 125.673V125.681Z" fill="#69170E"/>
<path d="M142.023 130.602L142.815 130.751V130.85H140.1V130.751L140.892 130.602V124.189L140.1 124.04V123.94H142.815V124.04L142.023 124.189V130.602Z" fill="#69170E"/>
<path d="M148.65 127.694H147.322V127.495H149.773V128.232C149.773 128.68 149.69 129.078 149.542 129.417C149.385 129.757 149.187 130.047 148.931 130.279C148.675 130.511 148.386 130.693 148.064 130.809C147.734 130.933 147.404 130.991 147.058 130.991C146.694 130.991 146.331 130.917 145.968 130.768C145.605 130.619 145.283 130.395 144.986 130.097C144.697 129.798 144.458 129.426 144.276 128.97C144.095 128.522 144.004 127.992 144.004 127.387C144.004 126.783 144.095 126.252 144.276 125.805C144.458 125.349 144.697 124.976 144.994 124.678C145.291 124.38 145.622 124.156 145.993 124.007C146.364 123.858 146.744 123.783 147.124 123.783C147.338 123.783 147.528 123.808 147.701 123.858C147.875 123.907 148.023 123.965 148.147 124.023C148.287 124.098 148.411 124.181 148.518 124.272C148.593 124.173 148.683 124.081 148.807 123.999C148.923 123.916 149.055 123.858 149.187 123.833H149.385C149.368 123.932 149.352 124.032 149.344 124.131C149.335 124.222 149.327 124.322 149.327 124.421C149.327 124.521 149.327 124.62 149.327 124.719C149.327 124.827 149.327 124.943 149.327 125.051C149.327 125.159 149.335 125.258 149.344 125.349C149.352 125.457 149.368 125.556 149.385 125.656H149.187C148.981 125.109 148.708 124.695 148.37 124.405C148.031 124.123 147.66 123.974 147.264 123.974C147.016 123.974 146.769 124.023 146.529 124.131C146.29 124.239 146.084 124.421 145.894 124.678C145.712 124.935 145.555 125.283 145.44 125.722C145.324 126.161 145.267 126.708 145.267 127.371C145.267 128.034 145.324 128.605 145.432 129.053C145.539 129.5 145.688 129.848 145.861 130.113C146.034 130.378 146.232 130.561 146.439 130.668C146.645 130.776 146.851 130.826 147.058 130.826C147.264 130.826 147.445 130.784 147.644 130.701C147.842 130.619 148.007 130.478 148.155 130.279C148.304 130.08 148.419 129.807 148.51 129.475C148.601 129.144 148.65 128.721 148.65 128.216V127.669V127.694Z" fill="#69170E"/>
<path d="M154.42 128.829H151.705L151.045 130.503L151.903 130.751V130.851H149.914V130.751L150.781 130.503L153.364 123.8H153.562L156.343 130.602L157.136 130.751V130.851H154.354V130.751L155.147 130.602L154.42 128.829ZM151.771 128.647H154.346L153.017 125.382L151.771 128.647Z" fill="#69170E"/>
</g>
<defs>
<clipPath id="clip0_347_327">
<rect width="200.353" height="131" fill="white" transform="translate(0.824219)"/>
</clipPath>
</defs>
</svg>
