<svg width="10" height="10" viewBox="0 0 10 10" fill="none" xmlns="http://www.w3.org/2000/svg">
<g clip-path="url(#clip0_2112_2)">
<path d="M5.91615 5.00815L9.80996 1.11423C10.0634 0.860949 10.0634 0.451425 9.80996 0.198141C9.55667 -0.0551421 9.14715 -0.0551421 8.89386 0.198141L4.99994 4.09206L1.10614 0.198141C0.85274 -0.0551421 0.443335 -0.0551421 0.190051 0.198141C-0.0633505 0.451425 -0.0633505 0.860949 0.190051 1.11423L4.08385 5.00815L0.190051 8.90207C-0.0633505 9.15536 -0.0633505 9.56488 0.190051 9.81816C0.316278 9.94451 0.482247 10.008 0.648097 10.008C0.813947 10.008 0.979797 9.94451 1.10614 9.81816L4.99994 5.92424L8.89386 9.81816C9.02021 9.94451 9.18606 10.008 9.35191 10.008C9.51776 10.008 9.68361 9.94451 9.80996 9.81816C10.0634 9.56488 10.0634 9.15536 9.80996 8.90207L5.91615 5.00815Z" fill="white"/>
</g>
<defs>
<clipPath id="clip0_2112_2">
<rect width="10" height="10" fill="white"/>
</clipPath>
</defs>
</svg>
