<svg width="24" height="25" viewBox="0 0 24 25" fill="none" xmlns="http://www.w3.org/2000/svg">
<g clip-path="url(#clip0_99_1125)">
<path d="M19 1.375H5C3.67441 1.37659 2.40356 1.90388 1.46622 2.84122C0.528882 3.77856 0.00158786 5.04941 0 6.375L0 18.375C0.00158786 19.7006 0.528882 20.9714 1.46622 21.9088C2.40356 22.8461 3.67441 23.3734 5 23.375H19C20.3256 23.3734 21.5964 22.8461 22.5338 21.9088C23.4711 20.9714 23.9984 19.7006 24 18.375V6.375C23.9984 5.04941 23.4711 3.77856 22.5338 2.84122C21.5964 1.90388 20.3256 1.37659 19 1.375ZM5 3.375H19C19.5988 3.37618 20.1835 3.55651 20.679 3.8928C21.1744 4.22909 21.5579 4.70595 21.78 5.262L14.122 12.921C13.5584 13.4823 12.7954 13.7975 12 13.7975C11.2046 13.7975 10.4416 13.4823 9.878 12.921L2.22 5.262C2.44215 4.70595 2.82561 4.22909 3.32105 3.8928C3.81648 3.55651 4.40121 3.37618 5 3.375ZM19 21.375H5C4.20435 21.375 3.44129 21.0589 2.87868 20.4963C2.31607 19.9337 2 19.1706 2 18.375V7.875L8.464 14.335C9.40263 15.2713 10.6743 15.797 12 15.797C13.3257 15.797 14.5974 15.2713 15.536 14.335L22 7.875V18.375C22 19.1706 21.6839 19.9337 21.1213 20.4963C20.5587 21.0589 19.7956 21.375 19 21.375Z" fill="#EAD798"/>
</g>
<defs>
<clipPath id="clip0_99_1125">
<rect width="24" height="24" fill="white" transform="translate(0 0.375)"/>
</clipPath>
</defs>
</svg>
