<svg width="38" height="39" viewBox="0 0 38 39" fill="none" xmlns="http://www.w3.org/2000/svg">
<g clip-path="url(#clip0_123_82)">
<path d="M19 38.6426C29.4934 38.6426 38 30.136 38 19.6426C38 9.14917 29.4934 0.642578 19 0.642578C8.50659 0.642578 0 9.14917 0 19.6426C0 30.136 8.50659 38.6426 19 38.6426Z" fill="#EAD798"/>
<path d="M23.8149 17.8451L23.4999 20.4901C23.4863 20.6129 23.4277 20.7264 23.3354 20.8086C23.243 20.8908 23.1235 20.9358 22.9999 20.9351H20.2499V28.7851C20.2506 28.8788 20.2142 28.969 20.1486 29.036C20.083 29.1029 19.9936 29.1413 19.8999 29.1426H17.0974C17.0508 29.1419 17.0048 29.1321 16.962 29.1137C16.9191 29.0952 16.8804 29.0685 16.8479 29.0351C16.8154 29.0016 16.7898 28.9621 16.7725 28.9188C16.7553 28.8755 16.7468 28.8292 16.7474 28.7826L16.7624 20.9351H14.6799C14.5473 20.9351 14.4201 20.8824 14.3264 20.7886C14.2326 20.6949 14.1799 20.5677 14.1799 20.4351V17.7901C14.1799 17.6575 14.2326 17.5303 14.3264 17.4365C14.4201 17.3428 14.5473 17.2901 14.6799 17.2901H16.7499V14.7251C16.7499 11.7576 18.5149 10.1426 21.0999 10.1426H23.2174C23.35 10.1426 23.4772 10.1953 23.571 10.289C23.6648 10.3828 23.7174 10.51 23.7174 10.6426V12.8701C23.7174 13.0027 23.6648 13.1299 23.571 13.2236C23.4772 13.3174 23.35 13.3701 23.2174 13.3701H21.9199C20.5149 13.3926 20.2499 14.0651 20.2499 15.0701V17.2826H23.3274C23.3976 17.2838 23.4668 17.2998 23.5304 17.3295C23.5941 17.3592 23.6507 17.402 23.6967 17.455C23.7427 17.5081 23.777 17.5703 23.7974 17.6375C23.8177 17.7047 23.8237 17.7754 23.8149 17.8451Z" fill="#61574A"/>
</g>
<defs>
<clipPath id="clip0_123_82">
<rect width="38" height="38" fill="white" transform="translate(0 0.642578)"/>
</clipPath>
</defs>
</svg>
