<svg width="130" height="130" viewBox="0 0 130 130" fill="none" xmlns="http://www.w3.org/2000/svg">
<path d="M81.2036 68.1051C81.2036 69.1539 82.3326 69.6614 84.6075 69.6614C86.0229 69.6614 87.1519 69.34 87.9944 68.7141C86.8149 67.3607 85.5174 66.6841 84.1019 66.6841C82.181 66.6841 81.2036 67.1577 81.2036 68.1051Z" fill="#EAD798"/>
<path d="M23.3582 105.377L10.7153 90.7673V77.5625L23.3582 42.4435L61.5677 9.85303L115.23 34.2959L124.22 59.0197L67.4677 115.21L23.3582 105.377Z" fill="#69170E"/>
<path d="M129.43 76.7159C129.127 73.4849 127.526 69.6956 124.628 65.3142C126.566 62.4215 127.931 59.6472 128.672 57.0082C129.515 53.9971 129.599 50.9859 128.891 47.941C128.183 44.896 126.852 42.3923 124.881 40.43C123.886 39.432 122.016 38.011 119.253 36.1671C115.663 33.7819 113.574 32.3101 113.001 31.735C111.602 30.3478 110.928 28.4532 110.962 26.0679C110.996 23.6827 112.226 20.6208 114.686 16.8992L113.389 15.5966C109.631 18.1172 106.564 19.369 104.205 19.3521C101.829 19.3521 99.9417 18.6247 98.5094 17.1699C97.5489 16.2056 96.3356 14.5309 94.8865 12.1626C92.8981 8.93154 91.3647 6.78314 90.3199 5.73432C86.6634 2.06344 81.9957 0.473293 76.3339 0.980788C73.1491 1.26837 69.4083 2.85852 65.0777 5.7174C62.1962 3.78892 59.4495 2.41869 56.8208 1.67436C53.8383 0.828539 50.822 0.760873 47.7889 1.47137C44.7558 2.18186 42.2619 3.51826 40.2903 5.48057C39.2961 6.47865 37.8807 8.37329 36.0271 11.1307C33.6512 14.7508 32.1852 16.8315 31.6123 17.4067C30.2305 18.7938 28.3432 19.4705 25.9673 19.4536C23.5913 19.4367 20.5414 18.1849 16.8342 15.715L15.5367 17.0176C18.0475 20.79 19.2944 23.8688 19.2776 26.2371C19.2776 28.6054 18.5361 30.517 17.1038 31.9549C16.1433 32.936 14.4751 34.1371 12.0992 35.5919C8.88071 37.605 6.74067 39.1275 5.69593 40.1763C2.03934 43.8472 0.455378 48.5161 0.960898 54.217C1.24736 57.4311 2.84817 61.2035 5.71278 65.5679C3.79181 68.4437 2.42691 71.218 1.68548 73.8401C0.842944 76.8343 0.775537 79.8624 1.48326 82.9073C2.19099 85.9523 3.5222 88.4559 5.49373 90.4183C6.48792 91.4163 8.35834 92.8373 11.1218 94.6812C14.711 97.0664 16.8005 98.5382 17.3734 99.1133C18.7552 100.5 19.4461 102.395 19.4124 104.78C19.3787 107.166 18.1486 110.227 15.6884 113.949L16.9859 115.252C20.7436 112.731 23.7935 111.479 26.1695 111.496C28.5286 111.496 30.4327 112.241 31.865 113.678C32.8255 114.643 34.0387 116.317 35.4879 118.686C37.4931 121.934 39.0097 124.065 40.0544 125.114C43.711 128.785 48.3787 130.375 54.0405 129.868C57.2084 129.58 60.9324 128.007 65.2293 125.182C68.1276 127.127 70.908 128.531 73.5704 129.275C76.5698 130.121 79.5692 130.189 82.6023 129.478C85.6355 128.768 88.1294 127.432 90.084 125.452C91.0782 124.454 92.4937 122.576 94.3473 119.802C96.7232 116.199 98.1892 114.101 98.7621 113.526C100.144 112.139 102.031 111.445 104.407 111.479C106.783 111.496 109.833 112.748 113.54 115.218L114.838 113.915C112.327 110.143 111.08 107.064 111.097 104.696C111.097 102.327 111.821 100.416 113.271 98.978C114.231 97.9968 115.899 96.7958 118.258 95.341C121.477 93.3279 123.617 91.8054 124.662 90.7566C128.318 87.0857 129.902 82.3998 129.413 76.7159H129.43ZM113.304 35.4058C110.558 36.793 107.39 38.7553 103.8 41.2759C105.738 44.084 106.699 46.9598 106.699 49.9033C106.699 55.1135 104.98 59.275 101.543 62.3707C100.093 63.724 96.2514 66.1093 90.0166 69.4756C90.9266 71.6579 91.3815 73.7217 91.3815 75.684C91.3815 81.4694 88.6686 86.7643 83.2427 91.5517C78.0527 96.1699 72.6605 98.4705 67.0492 98.4705C63.1061 98.4705 61.1346 96.9649 61.1346 93.9707C61.1346 91.5686 63.8139 88.3714 69.1892 84.396C74.3961 80.539 78.2212 78.6444 80.6308 78.7121L81.0858 79.2365L80.7319 79.7101C77.227 81.0634 73.6378 82.9581 69.9306 85.3941C64.926 88.7097 62.4153 91.5517 62.4153 93.92C62.4153 94.9011 62.8871 95.73 63.8139 96.3729C64.6059 96.9142 65.4821 97.1849 66.4763 97.1849C71.0597 97.1849 75.98 94.1568 81.2543 88.0838C86.478 82.1123 89.0899 76.699 89.0899 71.827C89.0899 71.2688 88.9888 70.5921 88.7697 69.8478C87.5901 70.5414 86.1747 70.8966 84.4896 70.8966C83.4955 70.8966 82.535 70.6936 81.6082 70.2707C80.4455 69.7294 79.8557 69.002 79.8557 68.0885C79.8557 66.3123 81.4565 65.4326 84.6413 65.4326C86.2084 65.4326 87.7587 66.3461 89.2921 68.1731C93.2688 65.6356 96.5378 62.5399 99.1328 58.8352C102.115 54.6061 103.598 50.3093 103.598 45.9448C103.598 44.6592 103.346 43.2889 102.84 41.8679C97.768 44.5915 92.797 49.1928 87.9103 55.6718C79.6535 66.5829 74.4635 73.248 72.3571 75.684C66.2403 82.8228 60.2415 88.1684 54.3606 91.7039C47.1317 96.0684 39.2793 98.2506 30.8034 98.2506C27.3322 98.2506 23.962 97.7093 20.6762 96.6266C16.1602 95.138 13.8854 93.0234 13.8854 90.2998C13.8854 89.2172 14.2055 88.2529 14.8458 87.3733C15.4693 86.4936 16.2782 86.0538 17.2386 86.0538C18.1991 86.0538 18.9911 86.3752 19.682 87.035C20.3729 87.6947 20.7267 88.5067 20.7267 89.4879C20.7267 91.1457 19.7325 92.5667 17.7442 93.7677C20.9121 95.7131 24.5855 96.6774 28.7813 96.6774C37.2235 96.6774 45.9185 92.9557 54.883 85.5294C58.6576 82.4337 66.3415 74.5844 77.9516 61.9986C87.4722 51.6457 95.51 44.5915 102.048 40.836C98.6947 37.5204 94.1114 34.9998 88.2979 33.2913C83.3438 31.8365 78.1538 31.1091 72.6942 31.1091C62.9882 31.1091 54.2932 32.9529 46.6093 36.6577C37.9649 40.7684 31.3763 46.8921 26.8941 55.012C25.327 57.8371 24.535 60.5945 24.535 63.318C24.535 66.8367 26.0347 69.5264 29.0509 71.421C31.5785 73.045 34.6285 73.8401 38.184 73.8401C43.9638 73.8401 50.9905 71.6071 59.2136 67.1581C68.5321 62.1677 73.1997 56.9574 73.1997 51.5103C73.1997 49.2604 72.1381 47.4842 69.9812 46.1478C68.1782 45.0144 66.1393 44.4392 63.8813 44.4392C53.08 44.4392 43.037 51.7641 33.7691 66.4307L33.3647 66.6168L32.7244 66.1431L32.8086 65.7202C35.252 59.8332 39.5321 54.623 45.6488 50.1063C51.9173 45.4712 58.0509 43.1536 64.0498 43.1536C66.5774 43.1536 68.8691 43.8302 70.8743 45.2005C73.1997 46.7737 74.3624 48.8544 74.3624 51.4088C74.3624 58.0739 69.897 63.8594 60.9661 68.7482C53.3328 72.9266 46.0196 75.0073 38.9928 75.0073C34.9487 75.0073 31.4943 74.1953 28.6297 72.5883C25.0405 70.5583 23.2543 67.5979 23.2543 63.6733C23.2543 60.696 24.1474 57.6172 25.9167 54.3861C30.4327 46.0801 37.1224 39.821 45.9522 35.6258C53.8046 31.8703 62.6849 29.9926 72.6436 29.9926C78.2717 29.9926 83.6639 30.7707 88.8202 32.3101C94.9033 34.1202 99.6721 36.7422 103.11 40.1763C105.991 38.2478 109.361 36.2347 113.186 34.1033L113.557 34.8138L113.321 35.3382L113.304 35.4058Z" fill="#EAD798"/>
</svg>
